<svg width="147" height="34" viewBox="0 0 147 34" fill="none" xmlns="http://www.w3.org/2000/svg">
<path fill-rule="evenodd" clip-rule="evenodd" d="M38.6364 24.5467V10.7402H49.8451V24.5467H47.1072V13.3792H41.3736V24.5467H38.6364ZM57.8538 16.5907H56.3C55.0054 16.5907 54.3577 17.0528 54.3577 17.9568C54.3577 18.8427 54.9874 19.2853 56.2451 19.2853C56.8004 19.2853 57.3361 19.2492 57.8538 19.1568V16.5907ZM60.3881 14.4867V24.5459H57.8538V21.0557C57.3628 21.1452 56.8429 21.2629 56.2148 21.281L54.1173 24.5459H51.2689L53.7744 20.9257C52.4603 20.3719 51.7686 19.4153 51.7686 17.92C51.7686 15.8709 53.2661 14.4867 56.2263 14.4867H60.3881ZM77.5159 15.3358C78.292 16.0925 78.6805 17.1265 78.6805 18.4737V24.5459H76.0733V18.9532C76.0733 17.4218 75.2596 16.6095 74.0567 16.6095C72.7426 16.6095 71.8372 17.551 71.8372 19.0275V24.5467H69.2292V18.9727C69.2292 17.4774 68.4336 16.6095 67.1946 16.6095C65.9188 16.6095 64.9939 17.551 64.9939 19.0463V24.5467H62.3859V14.4867H64.9383V15.9265C65.5115 14.8745 66.6949 14.1922 68.0083 14.2102C69.2661 14.2102 70.4314 14.8196 70.9679 15.982C71.7079 14.8745 73.0762 14.2102 74.5744 14.2102C75.7772 14.2102 76.757 14.5784 77.5159 15.3366V15.3358ZM99.1014 21.5741C99.6191 21.0203 99.8783 20.338 99.8783 19.5265C99.8783 18.7135 99.6191 18.0311 99.1014 17.4766C98.5838 16.9236 97.9173 16.6463 97.0856 16.6463C96.2718 16.6463 95.6054 16.9236 95.0884 17.4766C94.57 18.0311 94.3108 18.7135 94.3108 19.5265C94.3108 20.338 94.5708 21.021 95.0884 21.5748C95.6061 22.1286 96.2718 22.4052 97.0856 22.4052C97.9173 22.4052 98.5838 22.1286 99.1014 21.5748V21.5741ZM101.099 15.7604C102.042 16.7756 102.505 18.0311 102.505 19.5077C102.505 20.9842 102.024 22.2391 101.081 23.255C100.138 24.2694 98.9542 24.7857 97.5289 24.7857C96.2906 24.7857 95.1469 24.2456 94.3664 23.2896V28.681H91.7585V14.4867H94.3476V15.8066C95.1758 14.7756 96.2718 14.229 97.5477 14.229C98.9722 14.229 100.156 14.7452 101.099 15.7604ZM108.849 22.3871C109.644 22.3871 110.292 22.1098 110.828 21.5561C111.365 20.9842 111.642 20.3012 111.642 19.5077C111.642 18.7135 111.365 18.0311 110.829 17.4774C110.292 16.9236 109.644 16.647 108.849 16.647C108.054 16.647 107.388 16.9236 106.852 17.4774C106.316 18.0311 106.057 18.7142 106.057 19.5077C106.057 20.3012 106.316 20.9842 106.852 21.5561C107.388 22.1098 108.054 22.3864 108.849 22.3864V22.3871ZM104.965 15.7604C105.983 14.7265 107.278 14.2102 108.849 14.2102C110.421 14.2102 111.716 14.7265 112.734 15.7604C113.751 16.7756 114.25 18.0311 114.25 19.5077C114.25 21.0023 113.751 22.2579 112.734 23.273C111.716 24.2875 110.421 24.8052 108.849 24.8052C107.278 24.8052 105.983 24.2875 104.965 23.273C103.948 22.2579 103.449 21.003 103.449 19.5077C103.449 18.0311 103.948 16.7756 104.965 15.7604ZM121.593 14.4867H124.202V24.5467H121.593V21.1604C120.83 21.5958 120.003 21.8145 119.355 21.8145C118.153 21.8145 117.265 21.5929 116.47 21.0579C115.675 20.486 115.231 19.4153 115.231 17.8644V14.4867H117.821V17.6802C117.821 18.8615 118.431 19.4521 119.652 19.4521C120.336 19.4521 120.92 19.3568 121.594 19.0875V14.4867H121.593ZM132.821 24.5467L128.808 19.9012V24.5467H126.2V14.4716H128.808V18.4629L132.47 14.4867H135.762L131.268 19.1459L136.021 24.5467H132.821Z" fill="#EB2316"/>
<path fill-rule="evenodd" clip-rule="evenodd" d="M142.893 17.4586C142.356 16.886 141.69 16.6095 140.876 16.6095C140.044 16.6095 139.378 16.886 138.842 17.4586C138.324 18.0312 138.065 18.7135 138.065 19.507C138.065 20.3193 138.324 21.0023 138.86 21.5749C139.397 22.1467 140.063 22.4232 140.876 22.4232C141.69 22.4232 142.356 22.1467 142.893 21.5749C143.429 21.0023 143.707 20.3193 143.707 19.507C143.707 18.7135 143.429 18.0312 142.893 17.4586ZM143.67 14.4868H146.148V24.546H143.67V23.2174C142.803 24.2658 141.728 24.7864 140.451 24.7864C139.008 24.7864 137.806 24.2882 136.863 23.273C135.92 22.2579 135.457 20.9842 135.457 19.4709C135.457 17.9568 135.938 16.7019 136.881 15.7236C137.825 14.7272 139.027 14.229 140.451 14.229C141.709 14.229 142.819 14.7994 143.67 15.8059V14.4868ZM85.895 11.9582C85.895 11.0911 86.5795 10.4449 87.4669 10.4449C88.3362 10.4449 89.0026 11.1279 89.0026 11.9582C89.0026 12.8629 88.3362 13.5272 87.4669 13.5272C86.5795 13.5272 85.895 12.8629 85.895 11.9582ZM82.677 18.4925H87.8004C87.56 17.1813 86.6163 16.3886 85.2849 16.3886C83.9708 16.3886 82.9911 17.1813 82.677 18.4918V18.4925ZM83.4351 10.4449C84.3044 10.4449 84.9889 11.1279 84.9889 11.9582C84.9889 12.8629 84.3232 13.5272 83.4351 13.5272C82.547 13.5272 81.8813 12.8629 81.8813 11.9582C81.8813 11.1279 82.5658 10.4449 83.4351 10.4449ZM90.2416 20.4304H82.677C83.0467 21.8514 84.0272 22.5712 85.6178 22.5712C86.7088 22.5712 87.9239 22.1633 88.8452 21.4341L89.895 23.0824C88.6221 24.2716 87.1716 24.7676 85.5066 24.7676C83.7304 24.7676 82.3802 24.2514 81.4373 23.2362C80.4943 22.2211 80.0315 20.9655 80.0315 19.5077C80.0315 17.9756 80.5124 16.7207 81.4929 15.7243C82.4734 14.7272 83.7311 14.2283 85.2849 14.2283C86.7463 14.2283 87.9665 14.6897 88.9095 15.5943C89.8532 16.499 90.334 17.7171 90.334 19.2853C90.334 19.6362 90.2979 20.0247 90.2416 20.4304Z" fill="#EB2316"/>
<path fill-rule="evenodd" clip-rule="evenodd" d="M17.4835 0C8.10945 0 0.483459 7.62599 0.483459 17C0.483459 26.374 8.10945 34 17.4835 34C26.8567 34 34.4835 26.374 34.4835 17C34.4835 7.62599 26.8567 0 17.4835 0Z" fill="white"/>
<path fill-rule="evenodd" clip-rule="evenodd" d="M26.0624 4.80658C24.765 8.13438 21.8112 8.8268 17.5325 8.8268C17.0733 8.8268 16.6184 8.81958 16.1794 8.81308C15.7549 8.8073 15.3534 8.8008 14.9599 8.8008C14.6105 8.8008 14.2581 8.80514 13.9108 8.8203C14.5101 7.34882 15.4668 6.34882 16.8285 5.74232C18.7267 4.89755 21.1946 4.88889 23.3722 4.88239C24.3209 4.87878 25.2292 4.87517 26.0624 4.80658Z" fill="#008F32"/>
<path fill-rule="evenodd" clip-rule="evenodd" d="M27.3954 5.87431C25.4763 10.0548 21.199 10.4736 17.5326 10.4736C16.7275 10.4736 15.9564 10.4541 15.2423 10.4498L14.3189 14.0613C19.0481 10.2057 25.3023 14.0281 24.6337 19.8461C24.1831 23.7646 21.3896 26.327 18.4344 27.0635C15.2149 27.8664 11.6481 26.6649 10.0488 23.3841C9.87916 23.0375 9.58385 22.3429 9.47122 21.9718L12.8662 21.0996C12.9261 21.2952 13.0279 21.4844 13.1348 21.657C15.4077 25.3227 20.0135 23.4895 20.5333 19.6866C21.0626 15.818 15.6344 13.7573 13.1607 18.2786L10.1499 16.9956L10.0979 16.9725L11.5499 11.1436C11.6394 10.7292 11.9413 9.57178 11.9932 9.38189C13.6344 3.34723 18.9434 3.25192 23.2019 3.23604C21.4409 2.50319 19.5102 2.09741 17.4835 2.09741C9.25244 2.09741 2.58096 8.76889 2.58096 16.9999C2.58096 25.231 9.25244 31.9025 17.4835 31.9025C25.7145 31.9025 32.386 25.231 32.386 16.9999C32.386 12.5754 30.4568 8.60355 27.3954 5.87431Z" fill="#EB2316"/>
</svg>
