<svg width="72" height="26" viewBox="0 0 72 26" fill="none" xmlns="http://www.w3.org/2000/svg">
<path fill-rule="evenodd" clip-rule="evenodd" d="M66.9906 21.032H71.5433V16.7087H66.9906V21.032ZM67.1898 14.4955H71.3737V0.545176H67.1892V14.4955H67.1898ZM9.97308 16.7559C9.33742 17.4399 8.52478 17.782 7.53458 17.782C6.56317 17.782 5.75906 17.4354 5.12454 16.7417C4.48888 16.0485 4.17134 14.9815 4.17134 13.5389C4.17134 12.1532 4.48888 11.1129 5.12454 10.4198C5.75906 9.72667 6.56317 9.37953 7.53458 9.37953C8.52478 9.37953 9.33742 9.72667 9.97308 10.4198C10.6082 11.1129 10.9263 12.1617 10.9263 13.5668C10.9263 15.0088 10.6076 16.0719 9.97308 16.7559ZM7.84814 6.35545C6.30481 6.35545 4.82976 6.81754 3.59088 7.60742C3.72131 7.24275 3.85562 6.87946 3.99378 6.51764C4.55888 5.0591 5.87914 4.32897 7.48109 4.18442L13.9538 3.60226V0L9.9543 0.448433C3.04456 1.10287 0 2.77198 0 12.1162C0 18.0836 3.09806 20.822 7.54938 20.822C12.0007 20.822 14.9491 18.0813 14.9491 13.589C14.9491 9.09613 11.9347 6.35602 7.84814 6.35602V6.35545ZM43.5805 16.7582C42.9454 17.4513 42.1413 17.7979 41.1699 17.7979C40.1797 17.7979 39.3671 17.4513 38.7314 16.7582C38.0963 16.0645 37.7782 15.0157 37.7782 13.6112C37.7782 12.1686 38.0969 11.1061 38.7314 10.4221C39.3671 9.73805 40.1797 9.39603 41.1699 9.39603C42.1413 9.39603 42.9454 9.74203 43.5805 10.4357C44.2156 11.1289 44.5331 12.1965 44.5331 13.6385C44.5331 15.0248 44.2156 16.0645 43.5805 16.7582ZM41.9017 6.35545C39.9737 6.35545 38.4992 7.07761 37.48 8.25902V6.64967H33.9045V26H37.7776V19.2365C38.7792 20.2278 40.153 20.822 41.9017 20.822C45.9883 20.822 48.5548 17.5839 48.5548 13.589C48.5548 9.59407 45.9883 6.35545 41.9017 6.35545ZM60.0621 6.64967L56.6972 16.0013L53.2372 6.65024H49.0243L54.7014 20.686C54.0083 21.8355 53.0169 22.1695 51.712 22.1695H50.1471V25.7109H52.1406C54.9211 25.7109 57.3954 24.1716 58.6827 20.7725L63.9944 6.65024H60.0621V6.64967ZM21.2317 12.024C21.3114 10.6713 22.6202 9.17751 24.5608 9.17751C26.5014 9.17751 27.7072 10.6713 27.7875 12.024H21.2311H21.2317ZM31.59 13.5475C31.59 9.52521 29.4401 6.25473 24.5972 6.25473C19.7544 6.25473 17.1565 9.52521 17.1565 13.5475C17.1565 17.782 20.0571 21.0018 25.5573 21.0018C28.3856 21.0018 30.3113 19.9114 30.3113 19.9114V16.9522C30.3113 16.9522 28.7885 17.8599 26.1781 17.8599C23.2724 17.8599 21.4565 16.5454 21.2363 14.7971H31.5309C31.5684 14.4546 31.59 13.9037 31.59 13.5475Z" fill="#3E2D8F"/>
</svg>
