<svg width="23" height="23" viewBox="0 0 23 23" fill="none" xmlns="http://www.w3.org/2000/svg">
<path d="M21.4855 6.65655C22.3903 6.023 22.6102 4.77592 21.9766 3.8711C21.3431 2.96627 20.096 2.74639 19.1912 3.37994L11.8188 8.54213L6.65662 1.16976C6.02306 0.264941 4.77598 0.0450576 3.87117 0.678612C2.96636 1.31217 2.74645 2.55925 3.38001 3.46407L8.5422 10.8364L1.16983 15.9986C0.265024 16.6322 0.0451192 17.8793 0.678682 18.7841C1.31223 19.6889 2.55933 19.9088 3.46414 19.2752L10.8365 14.113L15.9987 21.4854C16.6323 22.3902 17.8793 22.6101 18.7842 21.9766C19.689 21.343 19.9089 20.0959 19.2753 19.1911L14.1131 11.8187L21.4855 6.65655Z" fill="white"/>
</svg>
