<svg width="15" height="17" viewBox="0 0 15 17" fill="none" xmlns="http://www.w3.org/2000/svg">
<path fill-rule="evenodd" clip-rule="evenodd" d="M14.5864 0.499973C14.6278 0.576362 14.7105 0.614556 14.7932 0.690945C14.8346 0.72914 14.9173 0.690945 14.9586 0.729139C15 0.767334 14.9173 0.805529 15 0.805529C14.8759 0.958307 14.8346 1.11109 14.7932 1.26386C14.7518 1.53122 14.8346 1.79859 14.7105 2.02775C14.7105 2.02775 14.6691 2.02775 14.6691 2.06595C14.6691 2.10414 14.5864 2.21873 14.545 2.33331C14.545 2.3715 14.4209 2.4097 14.4209 2.4097C14.4209 2.44789 14.4209 2.48609 14.4209 2.52428C14.4209 2.52428 14.3796 2.52428 14.3796 2.56248C14.3796 2.63887 14.3382 2.63887 14.3382 2.67706C14.1728 2.90623 13.966 3.17359 13.8005 3.36456C13.7178 3.47914 13.5937 3.63192 13.511 3.74651C13.1388 4.16665 12.7251 4.62498 12.3529 5.12151C12.3115 5.1597 12.2702 5.1979 12.2288 5.1979V5.27429H12.1874C12.1461 5.35068 12.1874 5.42706 12.1047 5.46526C12.1047 5.50345 12.022 5.54165 11.9806 5.54165V5.61804H11.9393V5.69443H11.8979V5.77081C11.8566 5.80901 11.8152 5.8472 11.7738 5.8854V5.96179H11.7325V6.03818H11.6911V6.11457C11.6498 6.15276 11.567 6.22915 11.5257 6.30554C11.4843 6.38193 11.4429 6.45832 11.4016 6.49651C11.4016 6.53471 11.3189 6.53471 11.2775 6.5729V6.64929H11.2361V6.72568H11.1948V6.80207C11.1121 6.84026 10.9466 7.06943 10.9053 7.18401C10.6571 7.52776 10.6157 7.64235 10.6157 7.75693C10.6157 7.9479 10.8225 8.17707 11.0293 8.40624C11.0707 8.44443 11.1534 8.48263 11.1948 8.52082C11.2361 8.55901 11.2361 8.6354 11.3189 8.71179C11.3602 8.74999 11.4429 8.78818 11.4843 8.82638C11.5257 8.86457 11.5257 8.86457 11.5257 8.90277C11.567 8.94096 11.6498 9.09374 11.7325 9.20832C11.7325 9.24652 11.7738 9.20832 11.7738 9.24652V9.28471C11.8152 9.3229 11.8979 9.3611 11.9393 9.39929C11.9806 9.43749 11.9806 9.43749 11.9806 9.47568C11.9806 9.51388 12.022 9.51388 12.022 9.51388C12.1874 9.74304 12.3115 9.93402 12.4356 10.125C12.477 10.1632 12.5597 10.2014 12.6011 10.2396C12.6011 10.2396 12.5597 10.316 12.6011 10.316C12.7665 10.4305 12.9319 10.6979 13.0147 10.8889V10.9653H13.056V11.0417H13.0974V11.118H13.1388V11.1944H13.1801C13.2215 11.2708 13.1801 11.309 13.2215 11.3472C13.2215 11.3854 13.3042 11.3854 13.3456 11.3854C13.3456 11.3854 13.3042 11.4618 13.3456 11.4618C13.3869 11.5 13.4283 11.5382 13.511 11.6528C13.5524 11.7292 13.5937 11.8055 13.6764 11.9201C13.7592 12.0347 13.9246 12.2639 14.0487 12.4549C14.0487 12.493 14.0901 12.493 14.0901 12.5312C14.1314 12.5694 14.1314 12.6076 14.1314 12.6458C14.1314 12.684 14.1728 12.7222 14.1728 12.7604C14.2141 12.875 14.2969 13.1424 14.3796 13.3333C14.4209 13.4097 14.4623 13.4861 14.5037 13.5625C14.545 13.7535 14.545 14.0972 14.4623 14.25C14.4623 14.25 14.4209 14.25 14.4209 14.2882C14.4209 14.441 14.2141 14.5556 14.0901 14.6701C13.9246 14.8229 13.5524 15.1285 13.2215 15.1667C12.9733 15.1667 12.7665 15.0903 12.6011 14.9757C12.5597 14.9375 12.5183 14.8993 12.477 14.8993C12.477 14.8993 12.3943 14.8993 12.3529 14.8993C12.3115 14.8611 12.2288 14.7847 12.1461 14.7083C11.9806 14.5937 11.8979 14.5556 11.8152 14.441C11.7738 14.4028 11.7325 14.3646 11.6911 14.3264C11.6498 14.2882 11.567 14.2118 11.5257 14.1354C11.4843 14.0972 11.4843 14.0972 11.4843 14.059C11.4843 14.0208 11.3189 13.8681 11.3189 13.7917C11.3189 13.7535 11.2775 13.6771 11.1948 13.6007C11.1534 13.5625 11.1121 13.5243 11.0707 13.4861C11.0293 13.4479 10.988 13.4097 10.9466 13.3715C10.9053 13.3333 10.9053 13.2951 10.8225 13.2569C10.7812 13.2187 10.7398 13.1805 10.6984 13.1424C10.6571 13.1042 10.6157 13.066 10.5744 13.0278C10.533 12.9896 10.533 12.9514 10.4503 12.9132C10.4089 12.875 10.3676 12.8368 10.3262 12.7986C10.2848 12.7604 10.2435 12.7222 10.2021 12.684C10.1608 12.6458 10.1194 12.6076 10.078 12.5694C10.0367 12.5312 9.99531 12.493 9.95395 12.4549C10.2021 12.3785 10.2021 12.3403 10.1608 12.3021C10.1194 12.2639 10.078 12.2257 10.0367 12.1875C9.99531 12.1493 9.95395 12.1111 9.91258 12.0729C9.87122 12.0347 9.82986 11.9965 9.7885 11.9583C9.74714 11.9201 9.70578 11.8819 9.66442 11.8437C9.62306 11.8055 9.5817 11.7674 9.54033 11.7292C9.49897 11.691 9.45761 11.6528 9.41625 11.6146C9.37489 11.5764 9.33353 11.5382 9.29217 11.5C9.25081 11.4618 9.20945 11.4236 9.16808 11.3854C9.08536 11.309 9.00264 11.1944 8.87856 11.0799C8.79583 11.0035 8.75447 10.8889 8.67175 10.8125C8.63039 10.7743 8.63039 10.8125 8.63039 10.7743C8.63039 10.6979 8.46495 10.6979 8.42358 10.5833C8.17542 10.5833 8.13406 10.7743 8.00997 10.9271C7.96861 10.9653 7.92725 11.0035 7.88589 11.0035C7.84453 11.0417 7.84453 11.0799 7.84453 11.118C7.80317 11.1562 7.76181 11.1562 7.72045 11.1944V11.2708C7.67908 11.309 7.63772 11.3472 7.59636 11.3854C7.555 11.4618 7.47228 11.5382 7.3482 11.691C7.30683 11.7292 7.26547 11.7292 7.22411 11.7674C7.18275 11.8055 7.18275 11.8437 7.18275 11.8819C7.14139 11.9201 7.10003 11.9201 7.05867 11.9583C7.01731 11.9965 6.89322 12.1493 6.8105 12.2639C6.76914 12.3021 6.72778 12.3021 6.68642 12.3403V12.4167H6.64506C6.6037 12.4549 6.6037 12.493 6.6037 12.5312C6.56233 12.5694 6.52097 12.5694 6.47961 12.6076C6.43825 12.6458 6.43825 12.684 6.43825 12.7222C6.39689 12.7604 6.35553 12.7604 6.31417 12.7604C6.27281 12.7986 6.27281 12.8368 6.27281 12.875C6.23145 12.9132 6.10736 12.9514 6.02464 13.0278V13.1042C5.98328 13.1424 5.90056 13.1424 5.8592 13.1805V13.2569C5.81783 13.2951 5.73511 13.2951 5.69375 13.3333V13.4097C5.48695 13.5243 5.28014 13.7917 5.1147 13.9826C5.07334 14.0208 5.07333 14.059 5.07333 14.0972C5.07333 14.0972 4.99061 14.1354 4.94925 14.1354C4.90789 14.1736 4.90789 14.2118 4.90789 14.25C4.82517 14.3264 4.78381 14.4028 4.65972 14.5556C4.61836 14.6319 4.577 14.7083 4.53564 14.7465C4.53564 14.7847 4.45292 14.7847 4.41156 14.8229V14.8993C4.3702 14.9375 4.24611 15.0139 4.16339 15.0903C4.12203 15.1285 4.08067 15.1285 4.03931 15.1667V15.2431C3.99795 15.2812 3.95658 15.3194 3.91522 15.3576C3.87386 15.3958 3.8325 15.3958 3.79114 15.434C3.74978 15.4722 3.74978 15.5104 3.74978 15.5486C3.74978 15.5868 3.70842 15.5486 3.70842 15.5868C3.70842 15.7014 3.41889 15.8542 3.29481 15.9687C3.17072 16.0833 3.088 16.1979 2.96392 16.3125C2.8812 16.3889 2.71575 16.4271 2.55031 16.5035C2.42622 16.5799 2.30214 16.6563 2.21942 16.6944C2.1367 16.7326 2.1367 16.7708 2.05397 16.809C1.92989 16.8472 1.55764 17 1.3922 17C1.26811 17 0.978586 16.9236 0.854503 16.8472C0.813141 16.809 0.771779 16.7708 0.730418 16.7708C0.730418 16.7708 0.647696 16.7708 0.606335 16.7708L0.564974 16.6944C0.482252 16.6563 0.275446 16.5799 0.192724 16.4653C0.192724 16.4653 0.234085 16.3889 0.192724 16.3889H0.151363V16.3125C0.110002 16.2743 0.0686415 16.2361 0.0272804 16.1215C-0.0554418 15.9306 0.0686412 15.6632 0.151363 15.3958C0.192724 15.3194 0.275446 15.1667 0.316807 15.0903C0.358168 15.0521 0.39953 15.0521 0.440891 15.0139C0.523614 14.9375 0.564974 14.8611 0.606335 14.8229C0.730418 14.6701 0.77178 14.5174 0.895863 14.3646C0.937224 14.3264 0.978585 14.2882 1.01995 14.2882C1.06131 14.25 1.06131 14.2118 1.06131 14.1736C1.10267 14.0972 1.22675 14.059 1.30947 14.0208C1.35084 13.9826 1.35083 13.9444 1.35083 13.9062C1.3922 13.8681 1.43356 13.8681 1.47492 13.8299C1.51628 13.7917 1.51628 13.7535 1.51628 13.7153C1.55764 13.6771 1.599 13.6771 1.64036 13.6389C1.68172 13.5625 1.76445 13.4861 1.80581 13.4479C1.84717 13.4097 1.88853 13.4097 1.92989 13.3715C1.97125 13.3333 2.01261 13.2569 2.05397 13.2187C2.05397 13.1806 2.05397 13.1424 2.05397 13.1424C2.05397 13.1042 2.1367 13.066 2.17806 13.066C2.21942 13.0278 2.21942 12.9896 2.21942 12.9514C2.26078 12.9132 2.30214 12.875 2.3435 12.875C2.38486 12.7986 2.42622 12.684 2.46758 12.6076C2.46758 12.5694 2.55031 12.5312 2.59167 12.5312C2.63303 12.493 2.63303 12.4549 2.63303 12.4167C2.75711 12.2639 2.8812 12.1493 3.00528 11.9965C3.12936 11.8437 3.25345 11.7292 3.37753 11.5764C3.41889 11.5382 3.46025 11.5 3.50161 11.5C3.54297 11.4618 3.54297 11.4236 3.54297 11.3854C3.58434 11.3472 3.6257 11.3472 3.66706 11.309C3.70842 11.2326 3.79114 11.1944 3.8325 11.118C3.87386 11.0799 3.87386 11.0417 3.87386 11.0035C3.87386 10.9653 3.95658 10.9271 3.99795 10.9271C4.03931 10.8889 4.03931 10.8507 4.03931 10.8125C4.16339 10.6215 4.32884 10.4687 4.49428 10.316C4.53564 10.2778 4.577 10.2396 4.61836 10.2396C4.65972 10.1632 4.65972 10.0486 4.74245 9.97221C4.78381 9.93402 4.82517 9.89582 4.86653 9.89582C4.90789 9.85763 4.90789 9.81943 4.90789 9.78124C4.94925 9.74304 4.99061 9.74304 5.03197 9.70485C5.07333 9.66665 5.07333 9.62846 5.07333 9.59027C5.1147 9.55207 5.15606 9.51388 5.19742 9.51388C5.23878 9.47568 5.23878 9.43749 5.23878 9.39929C5.28014 9.3611 5.3215 9.3229 5.36286 9.3229C5.40422 9.28471 5.40422 9.24652 5.40422 9.20832C5.44559 9.17013 5.48695 9.13193 5.52831 9.13193C5.56967 9.05554 5.56967 8.97915 5.65239 8.86457C5.69375 8.82638 5.73511 8.82638 5.77647 8.78818C5.81783 8.74999 5.77647 8.71179 5.81784 8.6736C5.8592 8.6736 5.90056 8.6354 5.94192 8.6354C5.98328 8.59721 5.94192 8.55901 5.98328 8.52082C5.98328 8.52082 6.066 8.48263 6.10736 8.48263C6.31417 8.29165 6.39689 8.10068 6.31417 7.79512V7.71874H6.27281V7.64235C6.23145 7.60415 6.10736 7.52776 6.10736 7.45137V7.41318C6.066 7.37498 5.98328 7.33679 5.94192 7.2986C5.90056 7.2604 5.90056 7.22221 5.90056 7.18401C5.90056 7.14582 5.8592 7.18401 5.8592 7.14582C5.8592 7.06943 5.77647 7.06943 5.73511 6.95485C5.73511 6.91665 5.65239 6.84026 5.61103 6.84026C5.56967 6.80207 5.52831 6.64929 5.44558 6.5729C5.36286 6.45832 5.28014 6.34373 5.19742 6.22915C5.15606 6.19095 5.19742 6.11457 5.15606 6.11457C5.15606 6.11457 5.07333 6.07637 5.03197 6.07637V5.99998H4.99061V5.92359C4.94925 5.8854 4.82517 5.80901 4.82517 5.73262C4.82517 5.65623 4.74245 5.65623 4.70109 5.54165C4.70109 5.50345 4.61836 5.42706 4.577 5.42706C4.53564 5.38887 4.53564 5.31248 4.45292 5.23609C4.45292 5.1979 4.41156 5.23609 4.41156 5.1979C4.41156 5.1597 4.32884 5.08331 4.28747 5.08331C4.24611 5.04512 4.20475 4.93054 4.12203 4.81595C4.12203 4.77776 4.03931 4.73956 3.99795 4.73956V4.66318H3.95659V4.58679H3.91522V4.5104C3.87386 4.4722 3.74978 4.39581 3.74978 4.31942C3.74978 4.28123 3.66706 4.28123 3.6257 4.24303C3.6257 4.24303 3.66706 4.16665 3.6257 4.16665C3.58433 4.12845 3.46025 4.05206 3.46025 3.97567C3.46025 3.89928 3.33617 3.89928 3.33617 3.7847C3.33617 3.74651 3.25345 3.67012 3.21208 3.67012C3.17072 3.63192 3.17072 3.59373 3.17072 3.59373C3.12936 3.55553 3.04664 3.51734 3.00528 3.47914C2.96392 3.44095 2.96392 3.40276 2.96392 3.36456C2.96392 3.32637 2.92256 3.36456 2.92256 3.32637C2.92256 3.28817 2.79847 3.21178 2.75711 3.13539C2.71575 3.0972 2.67439 3.05901 2.63303 3.05901C2.63303 3.05901 2.67439 2.98262 2.63303 2.98262C2.59167 2.94442 2.46758 2.94442 2.46758 2.86803C2.46758 2.79164 2.30214 2.79164 2.30214 2.67706C2.30214 2.63887 2.21942 2.63887 2.17806 2.60067C2.17806 2.60067 2.21942 2.52428 2.17806 2.52428C2.09533 2.48609 1.97125 2.18053 1.92989 2.06595C1.84717 1.87497 1.76445 1.684 1.76445 1.56942C1.76445 1.37845 1.84717 1.30206 1.97125 1.11108C2.05397 0.996501 2.05397 0.767335 2.09534 0.652752C2.1367 0.614557 2.21942 0.576361 2.26078 0.538167C2.30214 0.499972 2.42622 0.499973 2.42622 0.423584C2.50895 0.347195 2.55031 0.232612 2.71575 0.194417C2.83984 0.118028 3.00528 0.232612 3.21208 0.194417C3.50161 0.232612 3.54297 -0.0729451 3.79114 0.0416385C3.91522 0.0416385 4.03931 0.156223 4.16339 0.194417C4.577 0.270806 4.577 0.538167 4.86653 0.881918C4.86653 0.920112 4.90789 0.881917 4.90789 0.920112C4.90789 0.958306 4.99061 0.958307 5.03197 0.996501C5.03197 1.0347 5.03197 1.07289 5.03197 1.07289C5.07333 1.11109 5.15606 1.11109 5.19742 1.14928C5.19742 1.14928 5.15606 1.22567 5.19742 1.22567C5.19742 1.22567 5.28014 1.26386 5.3215 1.26386C5.3215 1.26386 5.28014 1.34025 5.3215 1.34025H5.36286V1.41664H5.40422C5.44559 1.49303 5.40422 1.53122 5.44558 1.56942C5.48695 1.60761 5.56967 1.60761 5.61103 1.64581C5.65239 1.684 5.61103 1.76039 5.65239 1.79859C5.65239 1.79859 5.73511 1.83678 5.77647 1.83678C5.77647 1.87498 5.77647 1.91317 5.77647 1.91317C5.77647 1.91317 5.8592 1.95136 5.90056 1.95136C5.90056 1.98956 5.90056 2.02775 5.90056 2.02775C5.94192 2.06595 6.02464 2.06595 6.066 2.10414C6.066 2.10414 6.02464 2.18053 6.066 2.18053C6.14872 2.21873 6.14872 2.21873 6.19008 2.29512L6.23145 2.4097C6.31417 2.48609 6.35553 2.60067 6.43825 2.75345C6.43825 2.79164 6.47961 2.75345 6.47961 2.79164C6.47961 2.82984 6.56233 2.82984 6.6037 2.86803C6.6037 2.86803 6.56233 2.94442 6.6037 2.94442C6.64506 2.98262 6.76914 3.05901 6.76914 3.13539V3.17359C6.8105 3.21178 6.89322 3.24998 6.93458 3.28817C6.97594 3.32637 7.01731 3.36456 7.05867 3.36456C7.05867 3.36456 7.01731 3.44095 7.05867 3.44095H7.10003V3.51734H7.14139V3.59373H7.18275C7.22411 3.63192 7.18275 3.67012 7.22411 3.70831C7.22411 3.74651 7.30683 3.74651 7.3482 3.74651C7.38956 3.7847 7.43092 3.86109 7.47228 3.93748C7.555 4.05206 7.555 4.12845 7.63772 4.24303C7.63772 4.28123 7.67909 4.24304 7.67909 4.28123C7.67909 4.31942 7.76181 4.39581 7.80317 4.39581C7.84453 4.43401 7.84453 4.5104 7.92725 4.58679C7.92725 4.62498 7.96861 4.58678 7.96861 4.62498C7.96861 4.66317 8.05134 4.73956 8.0927 4.73956L8.13406 4.81595C8.13406 4.81595 8.21678 4.81595 8.25814 4.81595C8.2995 4.85415 8.50631 4.89234 8.58903 4.81595C8.63039 4.77776 8.63039 4.81595 8.63039 4.77776C8.63039 4.70137 8.75447 4.70137 8.75447 4.62498C8.75447 4.54859 8.91992 4.39581 9.00264 4.24303C9.16808 3.97567 9.37489 3.74651 9.45761 3.59373C9.5817 3.40276 9.66442 3.24998 9.82986 3.05901C9.82986 3.02081 9.87122 3.059 9.87122 3.02081C9.87122 2.94442 9.99531 2.94442 9.99531 2.86803C9.99531 2.79164 10.1194 2.75345 10.1608 2.71525V2.63886H10.2021V2.56248C10.2848 2.48609 10.3262 2.44789 10.4503 2.33331C10.533 2.21873 10.6571 2.10414 10.7398 1.98956C10.7812 1.95136 10.8639 1.91317 10.8639 1.87497L10.9053 1.76039C10.9053 1.76039 10.988 1.7222 11.0293 1.7222V1.64581H11.0707V1.56942H11.1121V1.49303H11.1534V1.41664H11.1948V1.34025C11.4843 1.18747 11.6084 0.690945 11.8979 0.423584C11.9393 0.385389 12.022 0.347195 12.0634 0.309C12.1874 0.194417 12.3115 0.079833 12.5183 0.0416385C12.5183 0.0416385 12.6011 0.0416385 12.6424 0.0416385C12.7251 -0.0347506 12.9733 0.00344409 13.3869 0.0798331C13.6351 0.118028 13.8832 0.118028 14.0073 0.194417C14.0487 0.232612 14.1728 0.347195 14.2141 0.423584C14.5864 0.309 14.6278 0.385389 14.5864 0.499973Z" fill="#4F378D"/>
</svg>
