<svg width="48" height="48" viewBox="0 0 48 48" fill="none" xmlns="http://www.w3.org/2000/svg">
<path d="M24 48C37.2548 48 48 37.2548 48 24C48 10.7452 37.2548 0 24 0C10.7452 0 0 10.7452 0 24C0 37.2548 10.7452 48 24 48Z" fill="#B9AFD1"/>
<path fill-rule="evenodd" clip-rule="evenodd" d="M28.5191 13.5776C30.2804 13.5776 31.832 14.1647 32.9223 15.297C34.0126 16.3873 34.5997 17.897 34.5997 19.6583V28.2969C34.5997 30.1001 34.0126 31.6517 32.8804 32.7421C31.79 33.7904 30.2804 34.3775 28.4772 34.3775H19.9224C18.203 34.3775 16.6933 33.8324 15.5611 32.7421C14.3869 31.6098 13.7998 30.0582 13.7998 28.255V19.6583C13.7998 16.0099 16.2321 13.5776 19.8804 13.5776H28.5191ZM31.5384 31.3582C32.2933 30.6453 32.7545 29.5969 32.7545 28.2969V19.6583C32.7545 18.4421 32.3352 17.3937 31.6223 16.6389C30.8675 15.8841 29.8191 15.5067 28.561 15.5067H19.9224C18.6643 15.5067 17.574 15.8841 16.8611 16.597C16.1062 17.3518 15.7288 18.4002 15.7288 19.6583V28.255C15.7288 29.555 16.1062 30.6034 16.8611 31.3582C17.6159 32.0711 18.6643 32.4485 19.9224 32.4485H28.4772C29.7352 32.4485 30.7836 32.0711 31.5384 31.3582ZM29.7772 19.6583C30.4488 19.6583 30.9933 19.1138 30.9933 18.4422C30.9933 17.7706 30.4488 17.2261 29.7772 17.2261C29.1055 17.2261 28.561 17.7706 28.561 18.4422C28.561 19.1138 29.1055 19.6583 29.7772 19.6583ZM24.1997 18.5679C21.2643 18.5679 18.832 20.9582 18.832 23.9356C18.832 26.913 21.2223 29.3033 24.1997 29.3033C27.1772 29.3033 29.5675 26.8711 29.5675 23.9356C29.5675 21.0001 27.1352 18.5679 24.1997 18.5679ZM24.1997 27.3743C22.3127 27.3743 20.7611 25.8227 20.7611 23.9356C20.7611 22.0485 22.3127 20.4969 24.1997 20.4969C26.0868 20.4969 27.6384 22.0485 27.6384 23.9356C27.6384 25.8227 26.0868 27.3743 24.1997 27.3743Z" fill="#2D1B58"/>
</svg>
