<svg width="122" height="59" viewBox="0 0 122 59" fill="none" xmlns="http://www.w3.org/2000/svg">
<path d="M56.2001 22.4C56.9001 22.5 59.7001 22.2 60.3001 25C62.9001 22.5 62.4001 19.2 60.5001 17.9C57.4001 15.7 54.0001 17.7 53.7001 20C53.6001 21.4 54.5001 22.2 56.2001 22.4ZM120.6 18.8C118.9 18.7 116.3 21.6 114.2 21.6C112.8 21.6 112.7 20.5 113.5 18.8C116.6 12.2 112.8 12.4 112 13.1C112 13.1 114.7 8.40002 110 8.40002C104.2 8.40002 99.1001 13.3 96.4001 20.5C95.4001 23 93.3001 28.2 91.0001 28.9C88.8001 29.5 88.8001 26.6 87.4001 26.1C96.6001 19.9 96.8001 14.8 95.3001 13.1C94.0001 11.6 89.6001 11.1 84.2001 16.7C85.5001 11.7 89.3001 8.70002 90.2001 3.70002C90.7001 0.800016 88.5001 -2.29998 84.4001 2.60002C81.6001 5.90002 80.2001 12 77.5001 19.7C75.9001 24.4 72.7001 32.9 69.8001 32.9C68.6001 32.9 68.2001 31.8 68.6001 28.7C69.3001 22.7 74.2001 15.8 75.9001 10.8C77.2001 7.50002 75.9001 5.50002 74.5001 5.20002C72.6001 4.80002 69.9001 6.70002 67.8001 11.6C66.2001 15 64.9001 19.8 63.9001 25.1C63.0001 29.6 59.5001 38.4 56.0001 37.9C54.7001 37.7 56.0001 34.5 57.6001 31.3C58.9001 28.6 60.0001 25.3 57.2001 25.3C52.8001 25.3 49.7001 34.3 49.1001 41C48.8001 44.3 48.7001 48 51.3001 48C54.4001 48 58.4001 44.7 62.2001 39.1C62.5001 42.3 66.5001 46.4 74.3001 35.2C74.4001 36.9 74.8001 39.5 76.1001 39.5C76.1001 39.5 77.3001 39.8 78.5001 37C79.7001 34.2 81.1001 30.7 81.4001 30C82.1001 28.4 83.3001 28.1 83.4001 30.8C83.5001 33.5 84.2001 35.6 86.5001 35.6C90.9001 35.6 94.7001 31.6 95.8001 30C96.4001 32.4 101.8 33.2 107.7 26.1C108 28 109.6 30.7 117 25C121.5 21.5 121.9 18.9 120.6 18.8ZM83.4001 23.4C83.2001 23.4 82.9001 23.3 83.1001 22.9C83.7001 21.4 84.6001 20.1 85.8001 19C86.9001 18.1 88.0001 17.5 88.8001 17.5C89.6001 17.5 90.1001 18 90.0001 18.8C90.0001 19.4 89.6001 20.2 88.9001 20.9C86.4001 23.4 83.7001 23.4 83.4001 23.4ZM108.6 15.7C106.1 19.6 107 20.1 105.1 22.9C103.6 25.2 101.6 25.7 100.8 24.6C100 23.4 100.8 20.8 102.5 18.8C104.2 16.7 109.7 13.9 108.6 15.7ZM44.6001 41.5C45.3001 28.4 52.4001 17.5 52.7001 12.9C52.8001 11 51.8001 9.60002 49.6001 9.70002C45.9001 9.90002 39.2001 15.2 35.8001 21.9C33.9001 16.2 29.5001 19.6 27.3001 22.1C27.7001 11.5 24.4001 10.6 22.5001 10.6C16.6001 10.9 10.4001 18.8 7.00007 24.6C4.00007 30 -3.89993 45.9 2.40007 46.9C4.00007 47.1 5.50007 45.4 6.60007 41.3C10.7001 25.8 15.6001 22.3 17.6001 22.4C22.9001 22.8 16.1001 42.4 13.7001 49.3C12.4001 53 11.3001 58.9 15.5001 58.8C20.2001 58.6 22.2001 46.8 23.3001 40.3C24.6001 33.3 26.4001 31 28.2001 31.1C30.3001 31.4 29.4001 35.6 28.0001 39.6C26.7001 43.7 22.4001 53.8 27.5001 54.3C32.6001 54.5 32.4001 45.2 33.8001 39.4C35.9001 30.6 38.3001 24.7 40.9001 25.2C44.1001 25.9 36.7001 37.4 36.2001 46.5C35.8001 53.6 39.0001 58.7 43.7001 56.7C48.5001 54.4 44.2001 48.6 44.6001 41.5Z" fill="white"/>
</svg>
