<svg width="139" height="26" viewBox="0 0 139 26" fill="none" xmlns="http://www.w3.org/2000/svg">
<path d="M73.7926 21.6394V4.36084H84.5269V8.37402H78.2686V21.6394H73.7926Z" fill="#E30613"/>
<path d="M98.0319 21.6394V14.8723H91.3825V21.6394H86.9065V4.36084H91.3825V10.8091H98.0319V4.36084H102.508V21.6394H98.0319Z" fill="#E30613"/>
<path d="M128.483 21.6394V8.37402H123.255V4.36084H138.215V8.37402H132.961V21.6394H128.483Z" fill="#E30613"/>
<path d="M116.669 21.6371V11.7921L109.544 21.6371H105.801V4.36322H110.277V14.1057L117.283 4.36322H121.147V21.6371H116.669Z" fill="#E30613"/>
<path d="M48.0708 21.6394V11.3708L43.6018 16.7956L39.1329 11.3708V21.6394H34.657V4.36084H39.0744L43.6018 10.3021L48.1293 4.36084H52.5466V21.6394H48.0708Z" fill="#E30613"/>
<path d="M61.0441 15.5623H65.2038L63.1239 10.1448L61.0441 15.5623ZM67.5367 21.6369L66.5999 19.216H59.6412L58.7042 21.6369H54.205L61.0887 4.36066H65.2273L72.1134 21.6369H67.5367Z" fill="#E30613"/>
<path d="M0.00012207 7.87165C0.0044559 5.7849 0.822227 3.78491 2.27438 2.30958C3.72654 0.83424 5.69475 0.00377342 7.74809 0H25.6355V4.00128H7.75279C6.74384 4.00565 5.77742 4.41476 5.06376 5.13958C4.35011 5.86439 3.94696 6.84629 3.94204 7.87165L3.91861 14.5889C3.83697 15.4495 3.47716 16.2583 2.89536 16.8893C2.31357 17.5202 1.54258 17.9374 0.70278 18.076L0.00012207 18.1855V7.87165Z" fill="#E30613"/>
<path d="M0.000495911 26.0002V21.9988H17.8878C18.897 21.9938 19.8634 21.5841 20.577 20.859C21.2905 20.1337 21.6937 19.1516 21.6986 18.1261V11.7516C21.7035 10.8268 22.0318 9.93392 22.6247 9.23236C23.2177 8.5308 24.0367 8.06628 24.9355 7.92176L25.6381 7.81464V18.1261C25.6338 20.2131 24.8161 22.2133 23.364 23.689C21.9119 25.1647 19.9437 25.9956 17.8901 26.0002H0.000495911Z" fill="#E30613"/>
<path d="M15.1536 18.1997V13.0273L12.8208 15.8575L10.4903 13.0273V18.1997H7.40093V8.02155H10.3263L12.8208 11.2945L15.3152 8.02155H18.2406V18.1997H15.1536Z" fill="#E30613"/>
</svg>
