<svg width="74" height="73" viewBox="0 0 74 73" fill="none" xmlns="http://www.w3.org/2000/svg">
<rect x="0.5" width="73" height="73" rx="36.5" fill="#F7931E"/>
<path fill-rule="evenodd" clip-rule="evenodd" d="M27.3735 25.8849C27.3735 20.6609 31.6095 16.4249 36.8334 16.4249C42.0574 16.4249 46.2934 20.6609 46.2934 25.8849C46.2934 31.1088 42.0574 35.3448 36.8334 35.3448C31.6095 35.3448 27.3735 31.1088 27.3735 25.8849ZM32.9222 25.8849C32.9222 28.0503 34.668 29.7961 36.8334 29.7961C38.9852 29.7961 40.7446 28.0503 40.7446 25.8849C40.7446 23.7195 38.9988 21.9737 36.8334 21.9737C34.668 21.9737 32.9222 23.7195 32.9222 25.8849ZM46.3474 40.2033C46.2256 40.3116 43.9655 42.098 40.1761 42.8694L45.8873 48.5265C46.8888 49.5279 46.8888 51.1655 45.8873 52.167C44.8858 53.1685 43.2482 53.1685 42.2468 52.167L36.698 46.7671L31.6635 52.1399C31.1628 52.6677 30.4861 52.9249 29.8094 52.9249C29.1598 52.9249 28.5237 52.6948 28.023 52.2076C26.9944 51.2196 26.9674 49.5956 27.9553 48.5671L33.3823 42.8965C29.4981 42.1386 27.1298 40.2981 27.008 40.2033C25.9118 39.3101 25.7223 37.6996 26.6155 36.5899C27.5087 35.4936 29.1192 35.3042 30.229 36.1974C30.2425 36.2245 32.7191 38.0785 36.698 38.0785C40.5041 38.0785 42.886 36.3696 43.1094 36.2093C43.1196 36.2021 43.1253 36.198 43.1264 36.1974C44.2362 35.3042 45.8467 35.4801 46.7399 36.5899C47.6331 37.6996 47.4572 39.3101 46.3474 40.2033Z" fill="white"/>
</svg>
