<svg width="48" height="48" viewBox="0 0 48 48" fill="none" xmlns="http://www.w3.org/2000/svg">
<path d="M24 48C37.2548 48 48 37.2548 48 24C48 10.7452 37.2548 0 24 0C10.7452 0 0 10.7452 0 24C0 37.2548 10.7452 48 24 48Z" fill="#B9AFD1"/>
<path fill-rule="evenodd" clip-rule="evenodd" d="M26.2798 23.1573C25.4576 23.7068 24.4909 24 23.502 24C22.1759 24 20.9041 23.4732 19.9664 22.5355C19.0287 21.5979 18.502 20.3261 18.502 19C18.502 18.0111 18.7952 17.0444 19.3446 16.2222C19.894 15.3999 20.6749 14.759 21.5885 14.3806C22.5022 14.0022 23.5075 13.9031 24.4774 14.0961C25.4473 14.289 26.3382 14.7652 27.0375 15.4645C27.7367 16.1637 28.213 17.0546 28.4059 18.0246C28.5988 18.9945 28.4998 19.9998 28.1214 20.9134C27.7429 21.827 27.102 22.6079 26.2798 23.1573ZM24.6131 17.3371C24.2842 17.1173 23.8975 17 23.502 17C22.9717 17.0006 22.4633 17.2115 22.0884 17.5864C21.7135 17.9614 21.5025 18.4698 21.502 19C21.502 19.3956 21.6193 19.7822 21.839 20.1111C22.0588 20.44 22.3711 20.6964 22.7366 20.8478C23.102 20.9991 23.5042 21.0387 23.8921 20.9616C24.2801 20.8844 24.6365 20.6939 24.9162 20.4142C25.1959 20.1345 25.3864 19.7781 25.4635 19.3902C25.5407 19.0022 25.5011 18.6001 25.3497 18.2346C25.1983 17.8692 24.942 17.5568 24.6131 17.3371ZM28.4806 26.8247C27.5138 27.4209 26.4465 27.8358 25.3308 28.049L28.4923 31.2104C28.6227 31.3404 28.7262 31.4948 28.7968 31.6648C28.8675 31.8347 28.9039 32.017 28.904 32.2011C28.9042 32.3852 28.868 32.5675 28.7976 32.7376C28.7272 32.9077 28.6239 33.0622 28.4937 33.1923C28.3635 33.3225 28.2089 33.4257 28.0388 33.496C27.8687 33.5663 27.6864 33.6024 27.5023 33.6022C27.3182 33.6019 27.1359 33.5654 26.966 33.4947C26.796 33.4239 26.6417 33.3204 26.5118 33.1899L23.502 30.1801L20.4923 33.1899C20.3624 33.3204 20.2081 33.4239 20.0381 33.4947C19.8682 33.5654 19.6859 33.6019 19.5018 33.6022C19.3177 33.6024 19.1354 33.5663 18.9653 33.496C18.7952 33.4257 18.6406 33.3225 18.5104 33.1923C18.3802 33.0622 18.2769 32.9077 18.2065 32.7376C18.1361 32.5675 18.0999 32.3852 18.1001 32.2011C18.1002 32.017 18.1366 31.8347 18.2073 31.6647C18.2779 31.4948 18.3814 31.3404 18.5118 31.2104L21.6728 28.0494C20.6147 27.8473 19.5995 27.4638 18.672 26.916C18.3561 26.7236 18.1291 26.4141 18.0407 26.055C17.9522 25.6959 18.0094 25.3163 18.1997 24.9992C18.3901 24.6821 18.6981 24.4532 19.0566 24.3624C19.4152 24.2716 19.7951 24.3264 20.1134 24.5147C21.1597 25.126 22.3519 25.4428 23.5636 25.4315C24.7753 25.4202 25.9615 25.0813 26.9962 24.4507C27.1521 24.3524 27.3258 24.2859 27.5075 24.255C27.6891 24.224 27.8751 24.2293 28.0547 24.2703C28.2343 24.3114 28.4041 24.3876 28.5542 24.4944C28.7043 24.6012 28.8319 24.7366 28.9296 24.8929C29.0273 25.0491 29.0931 25.2231 29.1235 25.4048C29.1538 25.5866 29.1479 25.7725 29.1062 25.952C29.0644 26.1315 28.9877 26.3009 28.8804 26.4507C28.773 26.6004 28.6371 26.7275 28.4806 26.8247Z" fill="#2D1B58"/>
</svg>
