<svg width="74" height="16" viewBox="0 0 74 16" fill="none" xmlns="http://www.w3.org/2000/svg">
<path fill-rule="evenodd" clip-rule="evenodd" d="M8.83806 0.0440248C7.19438 -0.129115 5.53742 0.211081 4.09494 1.01785C2.65245 1.82463 1.49525 3.05837 0.782386 4.5495C0.0695253 6.04064 -0.163998 7.71596 0.113915 9.3452C0.391828 10.9744 1.16753 12.4776 2.33441 13.6481C3.50129 14.8186 5.00205 15.5989 6.63042 15.8819C8.25879 16.1648 9.93483 15.9365 11.4282 15.2283C12.9215 14.52 14.1588 13.3666 14.97 11.9266C15.7813 10.4867 16.1266 8.83076 15.9585 7.18655C15.7736 5.35891 14.9646 3.65082 13.6676 2.34987C12.3707 1.04893 10.6651 0.234609 8.83806 0.0440248ZM8.57882 12.2336C7.69481 12.3522 6.79585 12.1908 6.00829 11.7721C5.22074 11.3534 4.58418 10.6985 4.18807 9.8993C3.79197 9.10014 3.65624 8.19695 3.79996 7.31667C3.94368 6.43639 4.35962 5.62327 4.98933 4.99159C5.61904 4.35991 6.43085 3.94142 7.31068 3.79495C8.19051 3.64848 9.09412 3.78138 9.89451 4.17498C10.6949 4.56858 11.3518 5.20309 11.773 5.98933C12.1942 6.77557 12.3584 7.67402 12.2425 8.55841C12.121 9.48863 11.6962 10.3528 11.0339 11.0172C10.3715 11.6816 9.50866 12.1091 8.57882 12.2336ZM20.2374 0.360514C19.9599 0.361178 19.6861 0.423692 19.4358 0.543506C19.1856 0.663321 18.9652 0.837422 18.7907 1.05314C18.6161 1.26886 18.4919 1.52077 18.427 1.79054C18.3621 2.06031 18.3582 2.34116 18.4155 2.61265C18.5911 3.49217 19.4126 4.09312 20.3075 4.09312H25.5009L17.4188 14.7888C17.359 14.8677 17.3224 14.9618 17.3131 15.0604C17.3037 15.159 17.3221 15.2582 17.366 15.347C17.4099 15.4357 17.4777 15.5105 17.5617 15.5629C17.6457 15.6153 17.7427 15.6433 17.8418 15.6437H30.5194C31.4138 15.6437 32.2359 15.0429 32.4114 14.1632C32.4687 13.8918 32.4648 13.611 32.4 13.3412C32.3352 13.0715 32.211 12.8196 32.0366 12.6038C31.8622 12.3881 31.6418 12.214 31.3917 12.0941C31.1415 11.9742 30.8677 11.9116 30.5903 11.9108H24.2625L32.3385 1.22342C32.3988 1.14369 32.4358 1.04872 32.4452 0.949165C32.4545 0.849609 32.436 0.749404 32.3916 0.659794C32.3472 0.570184 32.2788 0.494714 32.1939 0.44185C32.109 0.388986 32.0111 0.360821 31.9111 0.360514H20.2374ZM70.8966 0.403568C70.4769 0.503373 70.1038 0.74343 69.839 1.08405C69.5742 1.42467 69.4336 1.84545 69.4405 2.27682V8.49148L59.3704 0.477894C59.2914 0.415208 59.1963 0.376089 59.0961 0.365036C58.9959 0.353983 58.8946 0.371446 58.8039 0.415416C58.7131 0.459386 58.6367 0.528076 58.5832 0.613585C58.5298 0.699093 58.5016 0.797946 58.5019 0.898771V13.7307C58.495 14.1621 58.6356 14.5829 58.9004 14.9235C59.1652 15.2641 59.5383 15.5042 59.958 15.6039C60.2306 15.6639 60.5131 15.6619 60.7848 15.5981C61.0565 15.5344 61.3104 15.4104 61.5278 15.2354C61.7452 15.0604 61.9205 14.8388 62.0408 14.587C62.1611 14.3352 62.2234 14.0596 62.223 13.7805V7.5121L72.2932 15.5258C72.3722 15.5885 72.4672 15.6276 72.5674 15.6386C72.6676 15.6497 72.7688 15.6322 72.8595 15.5883C72.9502 15.5443 73.0267 15.4757 73.0801 15.3902C73.1335 15.3047 73.1617 15.2059 73.1614 15.1051V2.22636C73.1617 1.94736 73.0994 1.67184 72.979 1.42014C72.8587 1.16843 72.6834 0.94694 72.466 0.772008C72.2487 0.597076 71.9948 0.473158 71.7232 0.409391C71.4516 0.345624 71.1691 0.343634 70.8966 0.403568ZM44.6768 3.73584C48.9362 3.73584 52.1188 5.98676 52.1188 8.00021C52.1188 10.0137 48.9362 12.2646 44.6768 12.2646C40.4175 12.2646 37.2349 10.0137 37.2349 8.00021C37.2349 5.98676 40.4175 3.73584 44.6768 3.73584ZM44.6768 0.00338733C38.5116 0.00338733 33.5138 3.58371 33.5138 8.00021C33.5138 12.4167 38.5116 15.997 44.6768 15.997C50.8421 15.997 55.8398 12.4167 55.8398 8.00021C55.8398 3.58371 50.8419 0.00338733 44.6768 0.00338733Z" fill="#0069FF"/>
</svg>
