<svg width="118" height="22" viewBox="0 0 118 22" fill="none" xmlns="http://www.w3.org/2000/svg">
<path fill-rule="evenodd" clip-rule="evenodd" d="M101.065 9.64441H99.1115C98.966 9.64441 98.8378 9.77013 98.8378 9.91378V11.7815C98.8378 11.9252 98.966 12.051 99.1115 12.051H101.065C101.211 12.051 101.339 11.9252 101.339 11.7815V9.91378C101.339 9.77013 101.211 9.64441 101.065 9.64441Z" fill="#043E44"/>
<path fill-rule="evenodd" clip-rule="evenodd" d="M5.31153 3.01657C5.14726 2.99861 5.00123 2.98065 4.85521 2.98065C3.92432 3.03453 3.10295 3.32187 2.48237 3.69903V3.41167C2.48237 3.30392 2.53712 3.10637 2.26334 3.10637H0.76661C0.346801 3.14229 0 3.4476 0 3.82475V5.40517V13.0918C0 14.4388 0.967394 15.2649 2.15382 15.2649H2.26334C2.3911 15.2649 2.51887 15.211 2.51887 14.9955V11.655C3.02995 11.9604 3.68704 12.2118 4.54492 12.2118C4.85521 12.2118 5.14726 12.1939 5.42105 12.1399C6.99076 11.9065 8.41449 10.5236 8.41449 7.50645C8.41449 4.99211 7.31934 3.16024 5.31153 3.01657ZM4.03384 10.4338C3.08471 10.4338 2.50062 9.69747 2.50062 8.45828V6.55455C2.50062 5.49497 3.10295 4.72272 4.03384 4.72272C5.03774 4.72272 5.65833 5.53089 5.65833 7.54236C5.65833 9.033 5.32978 10.4338 4.03384 10.4338Z" fill="#043E44"/>
<path fill-rule="evenodd" clip-rule="evenodd" d="M86.191 4.29202C85.1505 3.28629 83.9638 3.08875 83.0877 3.08875C82.2116 3.08875 81.0074 3.28629 79.985 4.29202C79.5651 4.70509 78.6527 5.80062 78.6527 7.65046C78.6527 9.06921 79.2182 10.3264 80.0581 11.1166C80.6787 11.6913 81.6823 12.248 83.1065 12.248C84.53 12.248 85.5336 11.6913 86.1541 11.1166C86.994 10.3264 87.5602 9.05129 87.5602 7.65046C87.5233 5.80062 86.611 4.72305 86.191 4.29202ZM84.3838 9.78758C84.0551 10.3623 83.5626 10.5239 83.0877 10.5239C82.6134 10.5239 82.1203 10.3444 81.7923 9.78758C81.5729 9.4284 81.3904 8.85374 81.3904 7.66838C81.3904 7.02184 81.4267 6.15981 81.8466 5.53123C82.1391 5.06429 82.5403 4.84877 83.0877 4.84877C83.6539 4.84877 84.0369 5.06429 84.3294 5.53123C84.7487 6.17777 84.7856 7.02184 84.7856 7.66838C84.7856 8.85374 84.585 9.41048 84.3838 9.78758Z" fill="#043E44"/>
<path fill-rule="evenodd" clip-rule="evenodd" d="M17.4125 4.57936C16.8102 3.86098 15.7515 3.10669 14.0357 3.10669C13.2508 3.10669 12.1192 3.23241 11.0788 4.09446C10.3669 4.68712 9.49081 5.76468 9.49081 7.7043C9.49081 9.35657 10.1662 10.4341 10.7685 11.0448C11.4438 11.7092 12.5208 12.266 13.9992 12.266C15.1856 12.266 16.1531 11.9607 16.8649 11.4758C17.3578 11.1346 17.9418 10.5599 18.2704 9.62595C18.2886 9.55412 18.3251 9.39249 18.1243 9.39249H16.0253C15.8975 9.39249 15.7697 9.53613 15.7332 9.60802C15.6603 9.78758 15.5507 9.9313 15.4412 10.039C15.2039 10.2725 14.7659 10.5419 14.127 10.5419C13.2874 10.5419 12.7945 10.1109 12.5208 9.60802C12.3017 9.23085 12.2105 8.69204 12.2287 8.20719H18.1061C18.3434 8.17122 18.4164 8.04556 18.4347 7.72228C18.4347 7.72228 18.4347 7.68637 18.4347 7.6504C18.4347 6.23163 17.96 5.20794 17.4125 4.57936ZM15.7697 6.73448H12.2652C12.2652 6.19571 12.4478 5.69284 12.758 5.38753C13.0866 5.06427 13.5429 4.83079 14.0905 4.83079C14.7841 4.83079 15.1856 5.15406 15.423 5.49529C15.6603 5.83652 15.788 6.32142 15.7697 6.73448Z" fill="#043E44"/>
<path fill-rule="evenodd" clip-rule="evenodd" d="M60.0167 4.57936C59.4144 3.86098 58.3557 3.10669 56.6399 3.10669C55.8551 3.10669 54.7235 3.23241 53.6831 4.09446C52.9712 4.68712 52.0951 5.76468 52.0951 7.7043C52.0951 9.35657 52.7704 10.4341 53.3727 11.0448C54.0481 11.7092 55.125 12.266 56.6035 12.266C57.7899 12.266 58.7573 11.9607 59.4691 11.4758C59.9619 11.1346 60.546 10.5599 60.8746 9.62595C60.8928 9.55412 60.9293 9.39249 60.7286 9.39249H58.6295C58.5017 9.39249 58.3739 9.53613 58.3375 9.60802C58.2645 9.78758 58.1549 9.9313 58.0454 10.039C57.8082 10.2725 57.3701 10.5419 56.7312 10.5419C55.8916 10.5419 55.3988 10.1109 55.125 9.60802C54.9059 9.23085 54.8147 8.69204 54.8329 8.20719H60.7103C60.9476 8.17122 61.0206 8.04556 61.0388 7.72228C61.0388 7.72228 61.0388 7.68637 61.0388 7.6504C61.0206 6.23163 60.546 5.20794 60.0167 4.57936ZM58.3557 6.73448H54.8512C54.8512 6.19571 55.0337 5.69284 55.344 5.38753C55.6726 5.06427 56.1289 4.83079 56.6765 4.83079C57.3701 4.83079 57.7716 5.15406 58.0089 5.49529C58.2462 5.83652 58.374 6.32142 58.3557 6.73448Z" fill="#043E44"/>
<path fill-rule="evenodd" clip-rule="evenodd" d="M43.4418 9.12342C42.876 7.97397 42.3832 7.29151 41.9086 7.21969C41.9086 7.21969 42.5474 7.18378 42.9855 6.03438C43.1315 5.62131 43.5513 4.68741 43.8251 4.11271C43.9346 3.8972 44.0989 3.66372 44.2815 3.44821C44.2997 3.4123 44.318 3.37638 44.318 3.34046C44.318 3.2327 44.2449 3.16086 44.1354 3.1429H42.3101C41.7991 3.16086 41.5618 3.53801 41.3975 3.91516C41.1237 4.54374 41.0142 4.92089 40.6309 5.76498C40.4484 6.17805 40.1016 6.60905 39.3532 6.60905H38.8239V0.323273C38.8239 0.215516 38.8787 0 38.6048 0H36.9439C36.5058 0.0359189 36.1772 0.341229 36.159 0.718378V10.6141C36.159 10.8116 36.1772 11.063 36.2685 11.3144C36.451 11.7095 36.8161 12.0328 37.2724 12.0328H38.4223C38.7144 12.0328 38.8056 11.8892 38.8056 11.6557V8.0997H39.2619C40.2659 8.0997 40.7039 9.23115 41.142 10.0213C41.5435 10.7577 42.2189 12.0687 43.4418 11.9969H44.8838C44.9751 11.9969 45.0663 11.9071 45.0663 11.8173C45.0663 11.7814 45.048 11.7455 45.048 11.7275C44.683 11.2067 43.9164 9.98544 43.4418 9.12342Z" fill="#043E44"/>
<path fill-rule="evenodd" clip-rule="evenodd" d="M95.9176 9.12342C95.3521 7.97397 94.859 7.29151 94.3847 7.21969C94.3847 7.21969 95.0234 7.18378 95.4615 6.03438C95.6077 5.62131 96.0276 4.68741 96.3014 4.11271C96.4107 3.8972 96.5751 3.66372 96.7575 3.44821C96.7757 3.4123 96.7938 3.37638 96.7938 3.34046C96.7938 3.2327 96.7213 3.16086 96.6113 3.1429H94.7859C94.2754 3.16086 94.0379 3.53801 93.8736 3.91516C93.5999 4.54374 93.4905 4.92089 93.1068 5.76498C92.9243 6.17805 92.5775 6.60905 91.8295 6.60905H91.3002V0.323273C91.3002 0.215516 91.3545 0 91.0808 0H89.4567C89.0186 0.0359189 88.6899 0.341229 88.6718 0.718378V10.6141C88.6718 10.8116 88.6899 11.063 88.7812 11.3144C88.9636 11.7095 89.3105 12.0328 89.7848 12.0328H90.9346C91.2271 12.0328 91.3183 11.8892 91.3183 11.6557V8.0997H91.7745C92.7787 8.0997 93.2168 9.23115 93.6549 10.0213C94.056 10.7577 94.7316 12.0687 95.9545 11.9969H97.3962C97.4874 11.9969 97.5787 11.9071 97.5787 11.8173C97.5787 11.7814 97.5605 11.7455 97.5605 11.7275C97.1594 11.2067 96.3926 9.98544 95.9176 9.12342Z" fill="#043E44"/>
<path fill-rule="evenodd" clip-rule="evenodd" d="M67.078 6.57284L65.5994 6.3753C65.1251 6.30347 64.4681 6.15979 64.4681 5.56713C64.4681 5.35161 64.5776 5.0463 64.9427 4.86671C65.107 4.77691 65.3807 4.68712 65.91 4.68712C66.3119 4.68712 66.7499 4.72304 67.133 5.02835C67.3336 5.17202 67.5161 5.4055 67.6442 5.65693C67.6804 5.72876 67.7535 5.76468 67.8448 5.74672L69.5789 5.38753C69.6882 5.36957 69.7614 5.24386 69.7064 5.15407C69.4508 4.5614 69.0677 4.13037 68.739 3.87894C67.8448 3.19648 66.8412 3.10669 66.0013 3.10669C65.1614 3.10669 64.103 3.21444 63.2817 3.73527C62.5333 4.23813 62.077 5.04631 62.077 5.8904C62.077 6.73448 62.4603 7.34511 62.9166 7.7582C63.5372 8.29694 64.4316 8.49449 65.1983 8.62022L66.4756 8.81776C67.0049 8.90758 67.7173 9.01531 67.7173 9.69777C67.7173 9.8774 67.6804 10.1648 67.3517 10.3623C67.0236 10.5599 66.3662 10.6317 66.0194 10.6317C65.4539 10.6317 64.8514 10.47 64.4681 10.1827C64.2855 10.039 64.0665 9.80557 63.9388 9.46431C63.9023 9.39249 63.8292 9.33859 63.738 9.33859L61.8945 9.60802C61.7849 9.62595 61.712 9.75167 61.7484 9.85941C61.9127 10.2545 62.2595 10.8831 62.9531 11.404C63.9388 12.0864 65.1433 12.2121 65.9832 12.2121C67.0418 12.2121 68.1916 12.0146 68.9946 11.4758C69.542 11.0986 70.1632 10.4162 70.1632 9.28475C70.1632 8.45858 69.8345 7.88392 69.4695 7.52474C68.8121 6.89611 67.8085 6.68064 67.078 6.57284Z" fill="#043E44"/>
<path fill-rule="evenodd" clip-rule="evenodd" d="M117.437 3.10669H115.265C115.137 3.10669 115.027 3.21444 115.027 3.34016V8.18921C115.027 8.63821 114.973 9.19494 114.626 9.64394C114.316 10.039 113.859 10.2366 113.421 10.2366C113.038 10.2366 112.71 10.0929 112.509 9.84149C112.198 9.44639 112.198 8.81777 112.198 8.49449V3.34016C112.198 3.21444 112.089 3.10669 111.961 3.10669H111.176C110.264 3.10669 109.534 3.82507 109.534 4.72304V8.92557C109.534 9.85941 109.661 10.8831 110.556 11.6195C111.012 12.0146 111.633 12.248 112.454 12.248C113.786 12.248 114.717 11.5297 115.192 10.47H115.229C115.229 11.3501 115.959 12.0684 116.853 12.0684H117.455C117.583 12.0684 117.693 11.9607 117.693 11.835V3.34016C117.675 3.21444 117.565 3.10669 117.437 3.10669Z" fill="#043E44"/>
<path fill-rule="evenodd" clip-rule="evenodd" d="M25.0255 3.55601V3.41233V3.2507C25.0255 3.2507 25.0255 3.05315 24.8065 3.01723C24.697 2.99927 24.6423 2.99927 24.5327 2.99927C24.478 2.99927 24.4232 2.99927 24.3684 2.99927C23.5289 3.05315 23.0177 3.44825 22.7257 3.75356C22.4884 4.00499 22.1599 4.47194 22.0686 5.1544H22.0321V3.26866C22.0321 3.1609 21.9408 3.0711 21.8313 3.0711H20.5901C20.0973 3.0711 19.714 3.46622 19.714 3.93316V11.2606C19.714 11.7455 20.0973 12.1227 20.5901 12.1227H22.1781C22.2877 12.1227 22.3789 12.0328 22.3789 11.9251V8.00997C22.3789 7.05808 22.5067 6.21401 23.3828 5.67522C23.7296 5.45971 24.1494 5.36991 24.6058 5.36991C24.6605 5.36991 24.7152 5.36991 24.7517 5.36991C25.0621 5.42379 25.0255 5.10052 25.0255 5.10052V3.55601Z" fill="#043E44"/>
<path fill-rule="evenodd" clip-rule="evenodd" d="M51.4897 3.55601V3.41233V3.2507C51.4897 3.2507 51.4897 3.05315 51.2706 3.01723C51.1611 2.99927 51.1063 2.99927 50.9968 2.99927C50.9421 2.99927 50.8873 2.99927 50.8325 2.99927C49.9929 3.05315 49.4818 3.44825 49.1898 3.75356C48.9525 4.00499 48.6239 4.47194 48.5327 5.1544H48.4962V3.26866C48.4962 3.1609 48.4049 3.0711 48.2954 3.0711H47.0542C46.5614 3.0711 46.1781 3.46622 46.1781 3.93316V11.2606C46.1781 11.7455 46.5614 12.1227 47.0542 12.1227H48.6422C48.7517 12.1227 48.843 12.0328 48.843 11.9251V8.00997C48.843 7.05808 48.9708 6.21401 49.8469 5.67522C50.1937 5.45971 50.6135 5.36991 51.0698 5.36991C51.1246 5.36991 51.1793 5.36991 51.2158 5.36991C51.5262 5.42379 51.4897 5.10052 51.4897 5.10052V3.55601Z" fill="#043E44"/>
<path fill-rule="evenodd" clip-rule="evenodd" d="M108.091 3.55601V3.41233V3.2507C108.091 3.2507 108.091 3.05315 107.872 3.01723C107.762 2.99927 107.708 2.99927 107.598 2.99927C107.543 2.99927 107.488 2.99927 107.434 2.99927C106.594 3.05315 106.083 3.44825 105.791 3.75356C105.554 4.00499 105.225 4.47194 105.134 5.1544H105.098V3.35846C105.098 3.2507 105.006 3.1609 104.897 3.1609H102.962C102.852 3.1609 102.761 3.2507 102.761 3.35846V11.961C102.761 12.0687 102.852 12.1586 102.962 12.1586H105.225C105.335 12.1586 105.426 12.0687 105.426 11.961V8.04588C105.426 7.09405 105.554 6.24992 106.43 5.71115C106.777 5.49563 107.197 5.40583 107.635 5.40583C107.69 5.40583 107.744 5.40583 107.781 5.40583C108.091 5.45971 108.091 5.13644 108.091 5.13644V3.58855V3.55601Z" fill="#043E44"/>
<path fill-rule="evenodd" clip-rule="evenodd" d="M78.4508 3.17882H75.5299V2.81964V0.574705V0.323273C75.5299 0.215516 75.5849 0 75.3112 0H73.6864C73.2484 0.0359189 72.9197 0.341229 72.9197 0.718377V3.17882H70.0363C69.8532 3.17882 69.8532 3.28658 69.872 3.37638C70.1276 4.22047 70.7662 5.02865 71.6786 5.06457H72.5916C72.7372 5.08252 72.8653 5.19028 72.9197 5.33395V9.19524V9.53644C72.9197 9.53644 72.9196 10.3087 73.0659 10.7936C73.139 11.0451 73.3034 11.2965 73.5221 11.512C74.1064 12.1226 75.0006 12.2663 75.6761 12.2663C76.1873 12.2663 76.881 12.2124 77.4646 12.1406C77.5746 12.1226 77.6471 12.0328 77.6471 11.943V10.4164C77.6471 10.2908 77.5377 10.201 77.4103 10.2189C77.1547 10.2549 76.8622 10.2728 76.6616 10.2728C76.3698 10.2728 76.078 10.2369 75.8405 10.0034C75.548 9.69807 75.548 9.32096 75.548 8.99769V7.14786H75.5668V5.44172C75.5668 5.24416 75.7311 5.08252 75.9317 5.06457H76.8441C77.7571 5.02865 78.3776 4.22047 78.6513 3.37638C78.6513 3.28658 78.6332 3.17882 78.4508 3.17882Z" fill="#043E44"/>
<path d="M32.8084 12.0978H34.5969C34.5969 10.4953 33 9.92975 31.8183 9.9612H27.6023H26.229C26.229 11.5322 27.826 12.0978 29.0076 12.0978H32.8084Z" fill="#043E44"/>
<path d="M27.6023 3.14307H31.8183C33 3.14307 34.5969 3.67721 34.5969 5.27964H32.8084H29.0076C27.826 5.27964 26.229 4.7455 26.229 3.14307H27.6023Z" fill="#043E44"/>
<path d="M27.6023 6.5365H31.8183C33 6.5365 34.5969 7.10203 34.5969 8.67304H32.8084H29.0076C27.826 8.67304 26.229 8.13889 26.229 6.5365H27.6023Z" fill="#043E44"/>
<path d="M54.0471 20.6175C52.9931 20.6175 52.2905 19.7692 52.2905 18.7637C52.2905 17.7897 53.025 16.9099 54.0471 16.9099C55.0691 16.9099 55.8037 17.7897 55.8037 18.7637C55.8037 19.7692 55.1011 20.6175 54.0471 20.6175ZM54.0471 17.7897C53.5041 17.7897 53.2805 18.3238 53.2805 18.7637C53.2805 19.235 53.5361 19.7377 54.0471 19.7377C54.5581 19.7377 54.8136 19.235 54.8136 18.7637C54.8136 18.2924 54.59 17.7897 54.0471 17.7897Z" fill="#043E44"/>
<path d="M58.934 20.6175C58.6466 20.6175 58.4549 20.3975 58.4549 20.0833V19.1093H57.1774V20.0833C57.1774 20.3975 56.9858 20.6175 56.6984 20.6175C56.4109 20.6175 56.2193 20.3975 56.2193 20.0833V17.4441C56.2193 17.1298 56.4109 16.9099 56.6984 16.9099C56.9858 16.9099 57.1774 17.1298 57.1774 17.4441V18.261H58.4549V17.4441C58.4549 17.1298 58.6466 16.9099 58.934 16.9099C59.2215 16.9099 59.4131 17.1298 59.4131 17.4441V20.0833C59.4131 20.3975 59.2215 20.6175 58.934 20.6175Z" fill="#043E44"/>
<path d="M62.7015 20.6175C62.4141 20.6175 62.2225 20.3976 62.2225 20.0833V17.8211H61.3921V18.858C61.3921 20.0205 60.8811 20.6175 60.1465 20.6175C59.859 20.6175 59.7312 20.3976 59.7312 20.1776C59.7312 19.9891 59.8271 19.832 60.0187 19.7691C60.2103 19.7063 60.4339 19.5178 60.4339 18.9522V17.5069C60.4339 17.1927 60.6255 16.9728 60.913 16.9728H62.7335C63.0209 16.9728 63.2126 17.1927 63.2126 17.5069V20.0833C63.2126 20.3976 62.989 20.6175 62.7015 20.6175Z" fill="#043E44"/>
<path d="M66.3727 20.6177C66.1494 20.6177 65.9896 20.5234 65.9256 20.2092C65.7657 20.4919 65.351 20.6177 64.9996 20.6177C64.2009 20.6177 63.658 20.2092 63.658 19.4551C63.658 18.3554 64.9673 18.1983 65.8939 18.1983V17.9469C65.8939 17.7584 65.734 17.6956 65.4784 17.6956C64.9038 17.6956 64.8081 18.0098 64.5522 18.0098C64.2329 18.0098 64.1371 17.7899 64.1371 17.6013C64.1371 17.1929 64.9356 16.8787 65.5101 16.8787C66.4044 16.8787 66.9156 17.2557 66.9156 17.9469V20.0835C66.8198 20.3977 66.66 20.6177 66.3727 20.6177ZM65.8939 18.9209C65.3186 18.9209 64.5522 18.8581 64.5522 19.4551C64.5522 19.7378 64.8398 19.8007 65.1271 19.8007C65.6383 19.8007 65.8615 19.5494 65.8615 19.078V18.9209H65.8939Z" fill="#043E44"/>
<path d="M70.081 20.6175C69.7937 20.6175 69.6015 20.3975 69.6015 20.0833V18.638L68.2601 20.3975C68.1644 20.5232 68.0369 20.6175 67.8454 20.6175C67.5581 20.6175 67.3659 20.3975 67.3659 20.0833V17.4441C67.3659 17.1298 67.5581 16.9099 67.8454 16.9099C68.1327 16.9099 68.3242 17.1298 68.3242 17.4441V18.858L69.5698 17.1927C69.6973 17.0041 69.8894 16.9099 70.0486 16.9099C70.3366 16.9099 70.5281 17.1298 70.5281 17.4441V20.0833C70.5922 20.3975 70.3683 20.6175 70.081 20.6175ZM67.9088 16.0302C67.9088 15.8416 68.0369 15.7159 68.2284 15.7159C68.6439 15.7159 68.5157 16.1558 68.9629 16.1558C69.3466 16.1558 69.2825 15.7159 69.6973 15.7159C69.8894 15.7159 70.0169 15.8731 70.0169 16.0302C70.0169 16.5014 69.5057 16.7842 68.9629 16.7842C68.42 16.7842 67.9088 16.5014 67.9088 16.0302Z" fill="#043E44"/>
<path d="M73.8488 20.6175C73.5615 20.6175 73.3694 20.3975 73.3694 20.0833V19.1093H72.0921V20.0833C72.0921 20.3975 71.9005 20.6175 71.6132 20.6175C71.3259 20.6175 71.1338 20.3975 71.1338 20.0833V17.4441C71.1338 17.1298 71.3259 16.9099 71.6132 16.9099C71.9005 16.9099 72.0921 17.1298 72.0921 17.4441V18.261H73.3694V17.4441C73.3694 17.1298 73.5615 16.9099 73.8488 16.9099C74.1361 16.9099 74.3277 17.1298 74.3277 17.4441V20.0833C74.36 20.3975 74.1678 20.6175 73.8488 20.6175Z" fill="#043E44"/>
<path d="M76.6603 19.0154H75.2232C74.9676 19.0154 74.8401 18.8269 74.8401 18.6069C74.8401 18.3556 74.9676 18.1671 75.2232 18.1671H76.6603C76.9159 18.1671 77.0441 18.3556 77.0441 18.6069C77.0441 18.8269 76.9159 19.0154 76.6603 19.0154Z" fill="#043E44"/>
<path d="M79.1509 20.6175C78.0975 20.6175 77.3948 19.7692 77.3948 18.7637C77.3948 17.7897 78.1292 16.9099 79.1509 16.9099C79.5346 16.9099 80.3331 17.067 80.3331 17.5069C80.3331 17.6954 80.205 17.9782 79.9494 17.9782C79.6938 17.9782 79.4706 17.7897 79.1833 17.7897C78.6404 17.7897 78.3525 18.261 78.3525 18.7637C78.3525 19.235 78.6404 19.7377 79.1833 19.7377C79.4389 19.7377 79.7902 19.5492 79.9177 19.5492C80.1416 19.5492 80.3331 19.7377 80.3331 19.9576C80.3648 20.4604 79.5023 20.6175 79.1509 20.6175Z" fill="#043E44"/>
<path d="M83.6551 17.5697L82.0265 21.6229C81.93 21.8429 81.8026 22 81.5793 22C81.2597 22 81.0682 21.78 81.0682 21.5915C81.0682 21.4972 81.0999 21.403 81.1316 21.3087L81.547 20.2719L80.4612 17.5697C80.4295 17.5069 80.4295 17.4126 80.4295 17.3183C80.4295 17.067 80.6844 16.9099 80.8766 16.9099C81.0999 16.9099 81.2914 17.0356 81.3555 17.2555L82.0265 19.1093L82.7609 17.2555C82.8566 17.0356 83.0165 16.9099 83.2397 16.9099C83.4312 16.9099 83.6868 17.0984 83.6868 17.3183C83.6868 17.4126 83.6868 17.4754 83.6551 17.5697Z" fill="#043E44"/>
<path d="M86.6886 20.6175C86.4006 20.6175 86.2091 20.3976 86.2091 20.0833V17.8211H84.9318V20.0833C84.9318 20.3976 84.7403 20.6175 84.453 20.6175C84.165 20.6175 83.9735 20.3976 83.9735 20.0833V17.5069C83.9735 17.1927 84.165 16.9728 84.453 16.9728H86.6886C86.9759 16.9728 87.1674 17.1927 87.1674 17.5069V20.0833C87.1674 20.3976 86.9759 20.6175 86.6886 20.6175Z" fill="#043E44"/>
<path d="M90.5845 19.0779H88.5081C88.5722 19.5492 88.9559 19.7692 89.4347 19.7692C89.9459 19.7692 90.2972 19.3921 90.5522 19.3921C90.7761 19.3921 90.9676 19.6121 90.9676 19.8005C90.9676 20.209 90.1051 20.6175 89.3707 20.6175C88.2849 20.6175 87.5505 19.832 87.5505 18.7637C87.5505 17.7897 88.2849 16.9099 89.3066 16.9099C90.3607 16.9099 91.0634 17.8525 91.0634 18.6694C91.0317 18.9208 90.9035 19.0779 90.5845 19.0779ZM89.2749 17.6954C88.8278 17.6954 88.5405 18.0096 88.5081 18.4181H90.0734C89.9776 18.0096 89.722 17.6954 89.2749 17.6954Z" fill="#043E44"/>
<path d="M93.2362 20.6177C92.9165 20.6177 92.5969 20.4919 92.3419 20.272V21.4346C92.3419 21.7487 92.1498 21.9687 91.8625 21.9687C91.5752 21.9687 91.3836 21.7487 91.3836 21.4346V17.4128C91.3836 17.0986 91.5752 16.8787 91.8625 16.8787C92.1181 16.8787 92.2779 17.0672 92.3419 17.3185C92.5335 17.0358 92.8848 16.8787 93.2679 16.8787C94.322 16.8787 94.8331 17.8527 94.8331 18.7953C94.8648 19.7065 94.2262 20.6177 93.2362 20.6177ZM93.1081 17.7899C92.5969 17.7899 92.3419 18.2926 92.3419 18.7324C92.3419 19.2038 92.5652 19.7378 93.1081 19.7378C93.6192 19.7378 93.8748 19.2351 93.8748 18.7638C93.8748 18.2926 93.6192 17.7899 93.1081 17.7899Z" fill="#043E44"/>
<path d="M99.2727 20.6175C98.953 20.6175 98.7932 20.429 98.7615 20.1776L98.5059 18.3866L97.963 20.2719C97.9313 20.3975 97.8032 20.6175 97.4518 20.6175C97.1005 20.6175 96.973 20.429 96.9413 20.2719L96.3978 18.3866L96.1428 20.1776C96.1105 20.3975 95.9506 20.6175 95.6316 20.6175C95.376 20.6175 95.1845 20.429 95.1845 20.1462C95.1845 20.1148 95.1845 20.0834 95.1845 20.0519L95.6633 17.3183C95.6957 17.1298 95.9506 16.9099 96.2703 16.9099C96.5899 16.9099 96.8132 17.1298 96.8772 17.3183L97.4518 19.1093L97.9947 17.3183C98.0588 17.1298 98.2827 16.9099 98.6017 16.9099C98.953 16.9099 99.1769 17.1298 99.2086 17.3183L99.6874 20.0519C99.6874 20.0834 99.6874 20.1148 99.6874 20.1462C99.7198 20.3975 99.5283 20.6175 99.2727 20.6175Z" fill="#043E44"/>
<path d="M102.783 20.6177C102.56 20.6177 102.4 20.5234 102.336 20.2092C102.177 20.4919 101.761 20.6177 101.41 20.6177C100.611 20.6177 100.069 20.2092 100.069 19.4551C100.069 18.3554 101.378 18.1983 102.304 18.1983V17.9469C102.304 17.7584 102.144 17.6956 101.889 17.6956C101.314 17.6956 101.218 18.0098 100.963 18.0098C100.643 18.0098 100.547 17.7899 100.547 17.6013C100.547 17.1929 101.346 16.8787 101.921 16.8787C102.815 16.8787 103.326 17.2557 103.326 17.9469V20.0835C103.23 20.3977 103.071 20.6177 102.783 20.6177ZM102.304 18.9209C101.73 18.9209 100.963 18.8581 100.963 19.4551C100.963 19.7378 101.25 19.8007 101.537 19.8007C102.049 19.8007 102.272 19.5494 102.272 19.078V18.9209H102.304Z" fill="#043E44"/>
<path d="M105.628 20.6177C105.309 20.6177 104.989 20.4919 104.733 20.272V21.4346C104.733 21.7487 104.542 21.9687 104.254 21.9687C103.967 21.9687 103.775 21.7487 103.775 21.4346V17.4128C103.775 17.0986 103.967 16.8787 104.254 16.8787C104.51 16.8787 104.669 17.0672 104.733 17.3185C104.925 17.0358 105.276 16.8787 105.66 16.8787C106.713 16.8787 107.224 17.8527 107.224 18.7953C107.257 19.7065 106.618 20.6177 105.628 20.6177ZM105.5 17.7899C104.989 17.7899 104.733 18.2926 104.733 18.7324C104.733 19.2038 104.957 19.7378 105.5 19.7378C106.011 19.7378 106.266 19.2351 106.266 18.7638C106.266 18.2926 106.011 17.7899 105.5 17.7899Z" fill="#043E44"/>
<path d="M110.355 20.6177C110.163 20.6177 110.035 20.4919 109.876 20.3348L108.662 19.0467V20.0835C108.662 20.3977 108.471 20.6177 108.183 20.6177C107.895 20.6177 107.704 20.3977 107.704 20.0835V17.4442C107.704 17.13 107.895 16.91 108.183 16.91C108.471 16.91 108.662 17.13 108.662 17.4442V18.3554L109.78 17.0986C109.908 16.9729 110.099 16.8787 110.228 16.8787C110.482 16.8787 110.642 17.0986 110.642 17.3185C110.642 17.4442 110.578 17.5699 110.451 17.6956L109.492 18.6382L110.706 19.8007C110.802 19.895 110.834 20.0207 110.834 20.115C110.802 20.4291 110.611 20.6177 110.355 20.6177Z" fill="#043E44"/>
<path d="M113.966 19.0779H111.89C111.953 19.5492 112.337 19.7692 112.816 19.7692C113.327 19.7692 113.678 19.3921 113.934 19.3921C114.157 19.3921 114.349 19.6121 114.349 19.8005C114.349 20.209 113.487 20.6175 112.752 20.6175C111.666 20.6175 110.932 19.832 110.932 18.7637C110.932 17.7897 111.666 16.9099 112.688 16.9099C113.742 16.9099 114.445 17.8525 114.445 18.6694C114.381 18.9208 114.253 19.0779 113.966 19.0779ZM112.624 17.6954C112.177 17.6954 111.89 18.0096 111.857 18.4181H113.423C113.359 18.0096 113.103 17.6954 112.624 17.6954Z" fill="#043E44"/>
<path d="M117.223 17.8213H116.552V20.0836C116.552 20.3977 116.36 20.6177 116.073 20.6177C115.786 20.6177 115.594 20.3977 115.594 20.0836V17.8213H114.923C114.668 17.8213 114.508 17.6642 114.508 17.4128C114.508 17.1615 114.699 17.0044 114.923 17.0044H117.287C117.542 17.0044 117.766 17.0987 117.766 17.4128C117.702 17.6957 117.478 17.8213 117.223 17.8213Z" fill="#043E44"/>
</svg>
