<svg width="80" height="80" viewBox="0 0 80 80" fill="none" xmlns="http://www.w3.org/2000/svg">
<path d="M51.1254 48.1029H51.1576C51.1576 48.0707 51.1576 48.0707 51.1576 48.0386C51.1897 48.0386 51.1254 48.1029 51.1254 48.1029ZM28.8103 76.881L28.8103 76.8489H28.7781L28.8103 76.881ZM35.1447 60.836L35.1447 60.9003H35.1768L35.1447 60.836ZM67.2347 76.8489H67.2026L67.2026 76.881L67.2347 76.8489ZM76.8167 67.2669H70.4823L70.4823 64.0514H67.299L67.299 60.9003H70.418L70.418 57.6527H67.1704L67.1704 51.1576H57.5563L57.5563 48.1029H51.1576C51.1576 52.3473 51.1576 56.5595 51.1576 60.9003H48.1029L48.1029 67.3312H51.254L51.254 70.5145H54.2765L54.2765 73.7299H51.1576L51.1576 76.7524H47.9421L47.9421 70.418H41.7042L41.7042 67.2026H44.6945L44.6945 60.9646H41.5434L41.5434 63.955H35.1447L35.1447 60.8682H31.9293L31.9293 67.2347C30.9003 67.2347 29.8714 67.2347 28.6817 67.2347L28.6817 70.5145H25.627L25.627 73.7299H28.746L28.746 76.8489H31.9936L31.9936 80H35.1447L35.1447 76.9132H41.4791C41.4791 77.9421 41.4791 78.9711 41.4791 79.9678H54.4051L54.4051 76.8489H67.2026L67.2026 70.5788H73.7299L73.7299 73.6013H79.9678L79.9678 70.418H76.8489L76.8489 67.2669H76.8167ZM38.2637 73.5691H31.9936C31.9936 71.4791 31.9936 69.3569 31.9936 67.2669H38.2637L38.2637 73.5691ZM44.6945 76.8489C43.6656 76.8489 42.6367 76.8489 41.6077 76.8489L41.6077 73.7621H44.6945L44.6945 76.8489ZM54.5016 54.5016H63.9228L63.9228 63.955H54.5016L54.5016 54.5016ZM63.9228 73.5691H57.6849L57.6849 67.3312H60.7395L60.7395 70.3858H63.9228L63.9228 73.5691ZM22.283 0.0321543L0.0321543 0.0321543L0.0321539 22.2508H22.2508L22.2508 0.0321543H22.283ZM19.0675 19.0997H3.24759L3.24759 3.18328L19.0675 3.18328L19.0675 19.0997ZM79.9678 0L57.7492 0L57.7492 22.2186L79.9678 22.2186L79.9678 0ZM76.7846 19.0354L60.9325 19.0354L60.9325 3.18328L76.7846 3.18328L76.7846 19.0354ZM0.0643072 79.9678H22.283L22.283 57.7492H0.0643076L0.0643072 79.9678ZM3.18328 60.9325H19.0354L19.0354 76.7846H3.18328L3.18328 60.9325ZM44.7588 48.0064L44.7588 44.8553H41.5113L41.5113 32.0257H38.3923L38.3923 35.2733H35.1768L35.1768 41.6077H38.2637L38.2637 48.0707H35.1768L35.1768 51.2219H41.5434L41.5434 48.0064H44.7588ZM38.3601 32.0257H38.4244L38.4244 31.9936L38.3601 32.0257ZM41.6077 51.1897H41.5756L41.5756 51.254L41.6077 51.1897ZM73.6013 44.791L73.6013 44.8553H73.6334L73.6013 44.791ZM54.5016 38.4244C54.4695 38.4244 54.4695 38.4244 54.4373 38.4244L54.5016 38.4566L54.5016 38.4244ZM60.8039 35.1768L60.8039 35.2412H60.836L60.8039 35.1768ZM57.717 44.8553H60.8682L60.8682 47.91H73.6334L73.6334 44.8553H63.9871L63.9871 41.5434H60.8039L60.8039 35.209H54.5016L54.5016 38.4244C55.5305 38.4244 56.5273 38.4244 57.717 38.4244L57.717 44.8553ZM25.627 54.5016L25.627 60.7395H28.8424L28.8424 54.4051H31.8971L31.8971 51.1897H28.7138L28.7138 44.9196H25.5627L25.5627 51.254H19.164L19.164 54.5016H25.627ZM19.164 51.254L19.164 51.2219L19.0997 51.254H19.164ZM47.9743 12.7331L47.9743 12.7974H48.0064L47.9743 12.7331ZM41.6077 19.2926H44.8231L44.8231 22.283H47.9421L47.9421 12.7974C46.881 12.7974 45.8521 12.7974 44.791 12.7974L44.791 15.8842H41.5434L41.5434 12.7974H38.4887L38.4887 25.4984H41.6077L41.6077 19.2926ZM51.1576 28.8746H44.8875L44.8875 35.0804H51.2219L51.2219 32.0257H54.2444L54.2444 19.2605H51.1254L51.1254 28.8746H51.1576ZM9.45338 28.7138L9.45338 25.6913H6.39871L6.39871 35.209H9.58199L9.58199 38.2958H12.7331L12.7331 31.9614H15.8842L15.8842 28.7138H9.45338ZM15.9164 31.9614L15.9164 31.9936L15.9807 31.9614H15.9164ZM54.4373 38.4244L54.4373 38.4566C54.4695 38.4566 54.4695 38.4566 54.5016 38.4566L54.4373 38.4244ZM44.8231 44.791H44.791L44.791 44.8553H44.8231L44.8231 44.791ZM51.1254 48.1029L51.1576 48.0386H51.1254C51.1254 48.0707 51.1254 48.0707 51.1254 48.1029ZM54.4373 44.7267C54.4373 42.5723 54.4373 40.5145 54.4373 38.4566C53.4084 38.4566 52.3794 38.4566 51.1897 38.4566L51.1897 41.6399H44.8231L44.8231 44.7588H48.0386L48.0386 47.9743C49.0675 48.0064 50.0965 48.0064 51.1576 48.0386C51.1576 47.0096 51.1576 45.9807 51.1576 44.8553C52.3151 44.8232 53.3119 44.791 54.4373 44.7267ZM35.1125 28.7138L35.1125 25.6913H28.8103L28.8103 28.746H32.0579L32.0579 31.9614H38.3923C38.3923 30.9325 38.3923 29.9035 38.3923 28.7138H35.1125ZM28.8103 28.8103L28.8103 28.746H28.7781L28.8103 28.8103ZM38.3601 32.0257L38.4244 31.9936H38.3601L38.3601 32.0257ZM76.9132 47.91H79.9357L79.9357 38.5209H76.7846L76.7846 41.6399H73.6656L73.6656 44.791C74.6945 44.791 75.7235 44.791 76.9132 44.791L76.9132 47.91ZM73.6013 44.791L73.6334 44.8553L73.6334 44.791H73.6013ZM44.8231 48.0386L44.8231 48.0064H44.791L44.791 48.0386H44.8231ZM44.8231 51.254H41.6077L41.6077 57.5241H44.8553L44.8553 54.4051H47.9743L47.9743 48.0707H44.8231L44.8231 51.254ZM47.9743 48.0386H48.0064L48.0064 47.9743H47.9743L47.9743 48.0386ZM41.5756 51.2219C41.5756 51.2219 41.5756 51.254 41.5756 51.2219C41.6077 51.1897 41.6077 51.1897 41.5756 51.2219ZM25.4984 25.6592H19.2604L19.2604 28.8424H22.283C22.3473 30 22.3794 30.9968 22.4116 31.9936C24.5016 31.9936 26.5916 31.9936 28.7138 31.9936L28.7138 28.7781C27.6849 28.7781 26.6559 28.7781 25.4662 28.7781L25.4662 25.6592H25.4984ZM28.8103 28.8103L28.7781 28.746L28.7781 28.8103H28.8103ZM22.4437 32.0579L22.4437 32.0257C22.4116 32.0257 22.4116 32.0257 22.3794 32.0257L22.4437 32.0579ZM63.8907 25.6592H60.7717L60.7717 28.8424H57.717L57.717 31.9936H60.836L60.836 35.1447C61.8649 35.1447 62.8939 35.1447 63.8907 35.1447L63.8907 25.6592ZM60.8039 35.1768L60.836 35.2412L60.836 35.1768H60.8039ZM35.2412 9.45338H38.2637L38.2637 3.05466H35.1125L35.1125 0L32.0579 0L32.0579 6.3344H35.2412L35.2412 9.45338ZM73.6656 28.8103L73.6656 28.746H73.6334L73.6334 28.8103H73.6656ZM76.8167 25.6913L76.8167 28.8103H73.6977L73.6977 31.9614H76.9453L76.9453 35.1125H80L80 25.6913H76.8167ZM73.6334 31.9936H73.6656L73.6656 31.9293H73.6334L73.6334 31.9936ZM70.418 28.8103H67.3633L67.3633 38.328H70.4502L70.4502 35.1447H73.6334L73.6334 32.0257H70.418L70.418 28.8103ZM15.9486 38.3601H19.0997L19.0997 35.1447H22.3151C22.3473 34.1158 22.3473 33.0868 22.3794 32.0257C20.2251 31.9936 18.1029 31.9936 15.9486 31.9614C15.9486 34.1158 15.9486 36.2058 15.9486 38.3601ZM22.4437 32.0579L22.3794 32.0257L22.3794 32.0579C22.4116 32.0579 22.4116 32.0579 22.4437 32.0579ZM15.9164 31.9936C15.9486 31.9936 15.9486 31.9936 15.9807 31.9936L15.9807 31.9293C15.9486 31.9614 15.9164 31.9936 15.9164 31.9936ZM9.61415 54.3087H12.701L12.701 44.8231H9.61415L9.61415 54.3087ZM12.701 44.8553H12.7331L12.701 44.791L12.701 44.8553ZM54.3087 3.24759H51.2862L51.2862 9.54984C52.283 9.54984 53.2476 9.54984 54.3087 9.54984L54.3087 3.24759ZM51.2862 9.58199C51.254 9.58199 51.254 9.58199 51.2219 9.58199L51.2862 9.61415L51.2862 9.58199ZM3.15112 38.3601H3.08682L3.08682 38.3923L3.15112 38.3601ZM3.08682 32.0579H0.0321537L0.0321536 38.3601H3.08682L3.08682 32.0579ZM79.9357 60.8039L79.9357 54.4373H76.881L76.881 60.8039H79.9357ZM76.881 54.4373L76.881 54.373H76.8489L76.8489 54.4373H76.881ZM28.8746 35.2733L28.8746 41.5756H31.9293L31.9293 35.2733H28.8746ZM31.9293 41.5756L31.9293 41.6077L31.9936 41.5756H31.9293ZM47.91 0.0321543L41.672 0.0321543L41.672 3.05466H47.91L47.91 0.0321543ZM44.791 12.7653C44.7588 12.7653 44.791 12.7653 44.791 12.7653V12.7653ZM41.6077 12.7331H41.5756L41.5756 12.7974H41.6077L41.6077 12.7331ZM44.7588 6.46302H41.6077L41.6077 12.7331H44.7588L44.7588 6.46302ZM35.0482 22.2508L35.0482 16.045H31.9293C31.9293 18.1029 31.9293 20.1608 31.9293 22.2508H35.0482ZM31.9293 16.045C31.9293 16.0129 31.9293 16.0129 31.9293 15.9807L31.8971 16.045H31.9293ZM28.746 15.9486L28.746 16.0129H28.7781L28.746 15.9486ZM28.746 15.9807H25.6592L25.6592 22.2508H28.746L28.746 15.9807ZM6.23794 48.1029H0.0321534L0.0321534 51.1576H6.23794L6.23794 48.1029ZM19.2283 44.7267H19.1961C19.1961 44.7588 19.1961 44.7588 19.1961 44.791C19.164 44.7588 19.2283 44.7267 19.2283 44.7267ZM12.7653 44.8553L12.7653 44.791H12.7331C12.701 44.791 12.7653 44.8553 12.7653 44.8553ZM19.0675 41.5756C19.0997 41.5756 19.0997 41.5756 19.1318 41.5756L19.0675 41.5434L19.0675 41.5756ZM12.7653 44.791C14.9196 44.7588 17.0418 44.7267 19.1961 44.7267C19.164 43.6656 19.1318 42.6367 19.0675 41.5756C16.9775 41.5756 14.8875 41.5756 12.7653 41.5756L12.7653 44.791ZM35.1447 48.0064L35.1447 48.0386H35.209L35.209 48.0064H35.1447ZM31.9936 41.6077C31.9936 43.6977 31.9936 45.8199 31.9936 47.9743H35.1447L35.1447 41.6077C34.0836 41.6399 33.0547 41.6077 31.9936 41.6077ZM31.9293 41.6077C31.9614 41.6077 31.9614 41.6077 31.9936 41.6077L31.9936 41.5756L31.9293 41.6077ZM35.1768 41.6077C35.209 41.6399 35.1768 41.6077 35.1768 41.6077V41.6077ZM31.8971 9.58199H28.7781C28.7781 11.7042 28.7781 13.8264 28.7781 15.9486C29.8071 15.9807 30.8682 15.9807 31.8971 16.0129C31.8971 13.8585 31.8971 11.7363 31.8971 9.58199ZM28.746 15.9486L28.7781 16.0129L28.7781 15.9807C28.7781 15.9486 28.746 15.9486 28.746 15.9486ZM28.746 9.58199H28.8103L28.8103 9.54984L28.746 9.58199ZM31.9293 15.9807H31.8971C31.8971 16.0129 31.8971 16.0129 31.8971 16.045C31.8971 16.045 31.9614 15.9807 31.9293 15.9807ZM19.2283 44.7267L19.1961 44.791H19.2283C19.2283 44.7588 19.2283 44.7267 19.2283 44.7267ZM22.2508 48.0386L22.2508 44.7588C21.1897 44.7588 20.1929 44.7588 19.1961 44.7588C19.1961 45.8521 19.1961 46.9453 19.2283 48.0386C20.2572 48.0386 21.2862 48.0386 22.2508 48.0386ZM19.2283 48.0707L19.2283 48.0386C19.1961 48.0386 19.1961 48.0386 19.164 48.0386C19.1961 48.0386 19.2283 48.0707 19.2283 48.0707ZM0.0321535 44.7267H3.02251L3.02251 41.5756C1.99357 41.5756 0.996784 41.5756 0.0321536 41.5756L0.0321535 44.7267ZM19.2283 48.0707L19.164 48.0386L19.164 48.0707C19.1961 48.0707 19.2283 48.0707 19.2283 48.0707ZM19.164 51.1897H19.1318L19.1318 51.2219C19.1318 51.254 19.164 51.1897 19.164 51.1897ZM16.045 51.1897H19.1318C19.164 50.1608 19.164 49.0997 19.1961 48.0707C18.1672 48.0707 17.1383 48.0707 16.0772 48.0707L16.0772 51.1897H16.045ZM19.0997 41.5434C20.1608 41.5434 21.2219 41.5434 22.3151 41.5434L22.3151 38.4244H19.164C19.164 39.4534 19.1318 40.4823 19.0997 41.5434ZM19.164 38.3923H19.1318L19.1318 38.4566H19.164C19.164 38.3923 19.164 38.3923 19.164 38.3923C19.164 38.3601 19.164 38.3601 19.164 38.3923ZM19.0997 41.5756L19.0997 41.5434C19.0675 41.5434 19.0675 41.5434 19.0354 41.5434C19.0675 41.5434 19.0997 41.5756 19.0997 41.5756ZM3.08682 41.5756L3.05466 41.5434L3.05466 41.5756C3.05466 41.5756 3.05466 41.5756 3.08682 41.5756L3.08682 41.5434C3.05466 41.5434 3.05466 41.5434 3.02251 41.5434C3.02251 41.5434 3.05466 41.5434 3.08682 41.5756ZM3.15112 38.3601L3.08682 38.3923H3.11897C3.15112 38.3923 3.15112 38.3923 3.15112 38.3601ZM6.20579 41.5434L6.20579 38.4244H3.15112C3.11897 39.4534 3.11897 40.5145 3.08682 41.5434C4.11575 41.5434 5.14469 41.5434 6.20579 41.5434ZM76.8167 51.3505H73.6656L73.6656 54.4051H76.8167C76.8167 53.3762 76.8167 52.3473 76.8167 51.3505ZM25.4341 38.3601L25.4341 35.209H22.3794L22.3794 38.3601C23.4084 38.3601 24.4373 38.3601 25.4341 38.3601ZM22.3794 35.209L22.3794 35.1768H22.3151L22.3151 35.209H22.3794ZM22.3473 38.3923L22.3473 38.4244H22.4116L22.4116 38.3923H22.3473C22.3151 38.3601 22.3151 38.3923 22.3473 38.3923ZM73.6334 54.4373C72.6045 54.4373 71.5756 54.4373 70.4823 54.4373L70.4823 57.5884H73.6334L73.6334 54.4373ZM73.6334 54.4373C73.6656 54.4373 73.6656 54.4373 73.6334 54.4373V54.4373ZM70.4502 57.6206H70.418L70.418 57.6849H70.4502L70.4502 57.6206ZM70.4502 28.746H70.418L70.418 28.8103H70.4502L70.4502 28.746ZM73.6334 25.6913H70.4823L70.4823 28.746H73.6334L73.6334 25.6913ZM38.2637 57.7492H35.1768L35.1768 60.8039C36.2058 60.8039 37.2347 60.8039 38.2637 60.8039L38.2637 57.7492ZM35.1447 60.836L35.1768 60.9003L35.1768 60.836H35.1447ZM2.99035 25.6913H-4.88118e-07L-5.44932e-07 28.6817H2.99035L2.99035 25.6913ZM76.8167 60.8682H76.8489L76.8489 60.8039H76.8167C76.8167 60.836 76.8167 60.836 76.8167 60.8682ZM73.7621 64.0193H76.8167C76.8167 62.9582 76.8167 61.8971 76.8167 60.8682H73.7621L73.7621 64.0193ZM76.8489 67.2347L76.8489 67.2669H76.9132L76.9132 67.2347H76.8489C76.8167 67.2347 76.8167 67.2347 76.8489 67.2347ZM79.9357 67.2347L79.9357 64.0836H76.881L76.881 67.2347H79.9357ZM76.881 64.0514L76.881 64.0193H76.8167L76.8167 64.0514H76.881ZM51.254 9.61415C50.1929 9.61415 49.1318 9.61415 48.0386 9.61415L48.0386 12.7331C49.0675 12.7331 50.0965 12.7331 51.254 12.7331C51.254 11.5756 51.254 10.6109 51.254 9.61415ZM47.9743 12.7331L48.0064 12.7974L48.0064 12.7331H47.9743ZM51.254 9.58199L51.254 9.61415C51.2862 9.61415 51.2862 9.61415 51.3183 9.61415C51.2862 9.61415 51.254 9.58199 51.254 9.58199ZM28.746 9.58199L28.8103 9.54984H28.746L28.746 9.58199ZM25.6913 6.46302L25.6913 9.54984H28.746C28.746 8.5209 28.746 7.49196 28.746 6.46302H25.6913ZM25.6592 79.9357H28.746L28.746 76.881C27.717 76.881 26.6881 76.881 25.6592 76.881L25.6592 79.9357ZM28.8103 76.881L28.7781 76.8167L28.7781 76.881H28.8103ZM28.6817 0L25.6913 0L25.6913 2.99035H28.6817L28.6817 0ZM67.2347 76.8489L67.1704 76.881H67.2347L67.2347 76.8489ZM70.3215 79.9678L70.3215 76.881H67.2669C67.2669 77.91 67.2669 78.9389 67.2669 79.9678H70.3215ZM76.9453 80H79.9357L79.9357 77.0096H76.9453L76.9453 80ZM57.717 60.7395H60.7074L60.7074 57.717H57.717L57.717 60.7395ZM15.8199 6.43087H6.39871L6.39871 15.8521H15.8199L15.8199 6.43087ZM73.537 6.43087H64.1479L64.1479 15.8521H73.537L73.537 6.43087ZM6.46302 73.5691H15.8521L15.8521 64.1158H6.46302L6.46302 73.5691Z" fill="#E30613"/>
</svg>
