<svg width="109" height="16" viewBox="0 0 109 16" fill="none" xmlns="http://www.w3.org/2000/svg">
<path d="M17.7724 8.68655C17.6652 3.87584 13.731 0 8.89105 0C3.98296 0 0 3.98296 0 8.89105H3.55447C3.55447 12.8156 6.73889 16 10.6634 16C14.5295 16 17.6652 12.9227 17.7724 9.08582C17.7724 9.01765 17.7724 8.94948 17.7724 8.89105C17.7724 8.83262 17.7724 8.75472 17.7724 8.68655ZM10.6634 12.4455C8.69629 12.4455 7.10895 10.8582 7.10895 8.89105C7.10895 6.92392 8.69629 5.33658 10.6634 5.33658C12.6306 5.33658 14.2179 6.92392 14.2179 8.89105C14.2179 10.8582 12.6306 12.4455 10.6634 12.4455Z" fill="#FF335F"/>
<path d="M68.3724 3.311C65.2756 3.311 62.7534 5.81374 62.7534 8.8813C62.7534 12.0073 65.2172 14.4516 68.3724 14.4516C71.5179 14.4516 73.9914 12.0073 73.9914 8.8813C73.9914 5.81374 71.4692 3.311 68.3724 3.311ZM68.3724 12.1242C66.7169 12.1242 65.5094 10.6439 65.5094 8.89104C65.5094 7.13815 66.7169 5.64819 68.3724 5.64819C69.989 5.64819 71.2063 7.15763 71.2063 8.8813C71.2063 10.6439 70.0182 12.1242 68.3724 12.1242Z" fill="#FF335F"/>
<path d="M43.686 3.55446L43.6762 4.79122C43.6762 4.79122 43.5496 4.63541 43.4425 4.51855C42.9166 3.88556 41.8941 3.32074 40.4042 3.32074C37.6482 3.32074 35.3987 5.82348 35.3987 8.89104C35.3987 11.9683 37.6482 14.4613 40.4042 14.4613C41.9039 14.4613 42.9166 13.8965 43.4425 13.2635C43.5496 13.1369 43.6762 12.9909 43.6762 12.9909L43.686 14.2276H46.4127V8.89104V3.55446H43.686ZM43.8515 8.89104C43.8515 10.7121 42.7316 12.1242 41.0371 12.1242C39.3427 12.1242 38.1546 10.7121 38.1546 8.89104C38.1546 7.06998 39.3427 5.65793 41.0371 5.65793C42.7316 5.64819 43.8515 7.06024 43.8515 8.89104Z" fill="#FF335F"/>
<path d="M94.6756 3.55446L94.6659 4.79122C94.6659 4.79122 94.5393 4.63541 94.4321 4.51855C93.9063 3.88556 92.8837 3.32074 91.3938 3.32074C88.6379 3.32074 86.3883 5.82348 86.3883 8.89104C86.3883 11.9683 88.6379 14.4613 91.3938 14.4613C92.8935 14.4613 93.9063 13.8965 94.4321 13.2635C94.5393 13.1369 94.6659 12.9909 94.6659 12.9909L94.6756 14.2276H97.4023V8.89104V3.55446H94.6756ZM94.8411 8.89104C94.8411 10.7121 93.7212 12.1242 92.0268 12.1242C90.3323 12.1242 89.1442 10.7121 89.1442 8.89104C89.1442 7.06998 90.3323 5.65793 92.0268 5.65793C93.7212 5.64819 94.8411 7.06024 94.8411 8.89104Z" fill="#FF335F"/>
<path d="M31.2988 7.46925H34.0645C33.3828 4.86913 31.4059 3.311 28.7279 3.311C25.524 3.311 23.1089 5.70662 23.1089 8.8813C23.1089 12.056 25.524 14.4516 28.7279 14.4516C31.4059 14.4516 33.3925 12.9032 34.0645 10.2934H31.2988C30.8021 11.4133 29.916 12.1144 28.7279 12.1144C27.0432 12.1144 25.8648 10.7121 25.8648 8.8813C25.8648 7.05051 27.0432 5.64819 28.7279 5.64819C29.916 5.64819 30.8021 6.35909 31.2988 7.46925Z" fill="#FF335F"/>
<path d="M51.1941 3.55444H48.8472V14.2179H51.5836V7.664L54.8557 11.8515L58.1083 7.664V14.2179H60.8447V3.55444H58.5075L54.8362 8.23856L51.1941 3.55444Z" fill="#FF335F"/>
<path d="M85.7164 3.55444H82.493L78.6172 8.23856V3.55444H75.8807V14.2179H78.6172V9.61166L82.9507 14.2179H86.437L81.2757 8.80338L85.7164 3.55444Z" fill="#FF335F"/>
<path d="M102.486 14.2179H105.222V5.85268H108.436V3.55444H99.2623V5.85268H102.486V14.2179Z" fill="#FF335F"/>
</svg>
