<svg width="15" height="15" viewBox="0 0 15 15" fill="none" xmlns="http://www.w3.org/2000/svg">
<path fill-rule="evenodd" clip-rule="evenodd" d="M1.70711 14.0711L3.17145 12.6067C5.91327 14.6623 9.82012 14.4433 12.3137 11.9497C15.0474 9.21608 15.0474 4.78392 12.3137 2.05025C9.58004 -0.683418 5.14788 -0.683418 2.41421 2.05025C-0.0793786 4.54384 -0.298372 8.45069 1.75723 11.1925L0.292893 12.6569C-0.0976311 13.0474 -0.0976311 13.6805 0.292893 14.0711C0.683417 14.4616 1.31658 14.4616 1.70711 14.0711ZM10.8995 10.5355C8.94687 12.4882 5.78105 12.4882 3.82843 10.5355C1.87581 8.58291 1.87581 5.41709 3.82843 3.46447C5.78105 1.51184 8.94687 1.51184 10.8995 3.46447C12.8521 5.41709 12.8521 8.58291 10.8995 10.5355Z" fill="#4F378D"/>
</svg>
