<svg width="102" height="26" viewBox="0 0 102 26" fill="none" xmlns="http://www.w3.org/2000/svg">
<path fill-rule="evenodd" clip-rule="evenodd" d="M69.9449 12.0155C69.9561 12.614 70.4539 13.0951 71.0525 13.0951C71.651 13.0951 72.1489 12.614 72.1489 12.0155V9.543H75.7625V12.0155C75.7625 12.614 76.2715 13.0951 76.87 13.0951C77.4686 13.0951 77.9664 12.614 77.9664 12.0155V4.89455C77.9664 4.29601 77.4574 3.81495 76.8588 3.81495C76.2603 3.81495 75.7625 4.29601 75.7625 4.89455V7.36701H72.1377V4.89455C72.1377 4.29601 71.6398 3.81495 71.0413 3.81495C70.4428 3.81495 69.9449 4.29601 69.9449 4.89455V12.0155ZM43.654 6.08044V12.0155C43.654 12.6252 44.1631 13.0951 44.7672 13.0951C45.3825 13.0951 45.8804 12.6196 45.8804 12.0155V6.08044H47.5473C48.1571 6.08044 48.6437 5.59937 48.6437 4.98965C48.6437 4.4023 48.1515 3.91004 47.5473 3.91004H41.9871C41.3774 3.91004 40.8907 4.4023 40.8907 4.98965C40.8907 5.59937 41.383 6.08044 41.9871 6.08044H43.654ZM35.901 8.76546L33.3223 4.35755C33.0258 3.8597 32.4049 3.6807 31.8679 3.92123C31.3253 4.23448 31.1519 4.89455 31.4652 5.42037L34.5417 10.617C34.167 10.8631 33.7642 10.9526 33.3279 10.9862C32.7294 11.0421 32.3266 11.4673 32.3266 12.0322C32.3266 12.7035 32.8692 13.0783 33.423 13.0783C34.6704 13.0783 35.7612 12.4462 36.5499 11.5624C37.2659 10.7569 37.8085 9.73879 38.3176 8.78784L40.1299 5.38681C40.404 4.86099 40.2362 4.17295 39.6769 3.90445C39.151 3.65273 38.5077 3.87648 38.2281 4.3967L35.901 8.76546ZM79.7229 8.4634C79.7229 11.126 81.6975 13.0951 84.3769 13.0951C87.0563 13.0951 89.031 11.1149 89.031 8.4634C89.031 5.80075 87.0396 3.82054 84.3769 3.82054C81.6975 3.82054 79.7229 5.80075 79.7229 8.4634ZM86.799 8.4634C86.799 9.88423 85.8145 10.9526 84.3713 10.9526C82.9225 10.9526 81.9436 9.87863 81.9436 8.4634C81.9436 7.04257 82.9281 5.96297 84.3713 5.96297C85.8201 5.96297 86.799 7.04257 86.799 8.4634ZM96.605 6.08603C97.2147 6.08603 97.6958 5.61056 97.6958 5.01761C97.6958 4.43586 97.2147 3.9436 96.605 3.9436H94.9436C92.2306 3.9436 90.3007 5.87906 90.3007 8.48018C90.3007 11.0757 92.2306 13.0168 94.9436 13.0168H96.605C97.2147 13.0168 97.6958 12.5413 97.6958 11.9427C97.6958 11.361 97.2147 10.8687 96.605 10.8687H94.8821C93.4333 10.8687 92.4823 9.85066 92.4823 8.47459C92.4823 7.09851 93.4389 6.08044 94.8821 6.08044H96.605V6.08603ZM56.1618 12.7762C56.5701 13.1958 57.2582 13.2125 57.6777 12.793C58.0861 12.3902 58.1308 11.6966 57.7225 11.2771L54.9256 8.39068L57.6106 5.61615C58.0133 5.19662 57.9742 4.50858 57.5658 4.11701C57.1575 3.69748 56.4694 3.71426 56.0667 4.13379L53.2922 6.99223C53.0516 7.24395 52.8838 7.27751 52.7048 7.27751C52.4307 7.27751 52.1958 7.08732 52.1958 6.80204V4.89455C52.1958 4.29601 51.6979 3.81495 51.0994 3.81495C50.5009 3.81495 50.003 4.29601 50.003 4.89455V12.0211C50.003 12.6196 50.5009 13.1007 51.0994 13.1007C51.6979 13.1007 52.1958 12.6196 52.1958 12.0211V9.9961C52.1958 9.72201 52.4307 9.53182 52.7048 9.53182C52.8838 9.53182 53.0516 9.56538 53.2922 9.8171L56.1618 12.7762ZM58.8916 8.4634C58.8916 11.126 60.8662 13.0951 63.5456 13.0951C66.225 13.0951 68.1996 11.1149 68.1996 8.4634C68.1996 5.80075 66.2082 3.82054 63.5456 3.82054C60.8662 3.82054 58.8916 5.80075 58.8916 8.4634ZM65.9733 8.4634C65.9733 9.88423 64.9888 10.9526 63.5456 10.9526C62.0968 10.9526 61.1179 9.87863 61.1179 8.4634C61.1179 7.04257 62.1024 5.96297 63.5456 5.96297C64.9888 5.96297 65.9733 7.04257 65.9733 8.4634ZM100.42 7.59076C101.007 7.59076 101.528 7.1097 101.528 6.4776C101.528 5.86787 101.007 5.38121 100.42 5.38121C99.8158 5.38121 99.3068 5.87347 99.3068 6.4776C99.3012 7.1041 99.8102 7.59076 100.42 7.59076ZM100.42 11.5456C101.007 11.5456 101.528 11.0477 101.528 10.4324C101.528 9.82269 101.007 9.34163 100.42 9.34163C99.8158 9.34163 99.3068 9.82269 99.3068 10.4324C99.3012 11.0421 99.8102 11.5456 100.42 11.5456Z" fill="#13A538"/>
<path d="M33.1489 17.8386C34.2173 17.8386 34.8047 18.6329 34.8047 19.6118C34.8047 20.5907 34.2229 21.3851 33.1489 21.3851C32.0805 21.3851 31.4931 20.5907 31.4931 19.6118C31.4987 18.6329 32.0805 17.8386 33.1489 17.8386ZM33.1489 21.0215C33.9264 21.0215 34.4019 20.4733 34.4019 19.6118C34.4019 18.7504 33.9264 18.2022 33.1489 18.2022C32.3713 18.2022 31.8959 18.7504 31.8959 19.6118C31.8959 20.4733 32.3713 21.0215 33.1489 21.0215Z" fill="black"/>
<path d="M38.3959 17.9114C38.5301 17.9114 38.5916 18.0177 38.5916 18.1351V21.0943C38.5916 21.2117 38.5301 21.318 38.3959 21.318C38.2616 21.318 38.2001 21.2117 38.2001 21.0943V19.7406H36.1583V21.0943C36.1583 21.2117 36.0968 21.318 35.9625 21.318C35.8283 21.318 35.7668 21.2117 35.7668 21.0943V18.1351C35.7668 18.0177 35.8283 17.9114 35.9625 17.9114C36.0968 17.9114 36.1583 18.0177 36.1583 18.1351V19.377H38.2001V18.1351C38.2001 18.0121 38.2616 17.9114 38.3959 17.9114Z" fill="black"/>
<path d="M39.8782 20.6132C40.074 20.1097 40.1579 19.1085 40.1915 18.0848C40.1915 17.9785 40.2698 17.9114 40.3817 17.9114H42.0654C42.2053 17.9114 42.2724 18.0065 42.2724 18.1239V21.0942C42.2724 21.2117 42.2108 21.318 42.0766 21.318C41.9423 21.318 41.8808 21.2117 41.8808 21.0942V18.2694H40.5551C40.5159 19.0469 40.46 20.1881 40.1915 20.8146C40.0237 21.2061 39.7831 21.3516 39.5034 21.3516C39.3636 21.3516 39.207 21.2956 39.2238 21.1278C39.2461 20.9656 39.3468 20.9768 39.4755 20.9768C39.6601 20.9768 39.7943 20.8202 39.8782 20.6132Z" fill="black"/>
<path d="M43.4974 18.3533C43.4415 18.219 43.5086 18.1463 43.6149 18.0903C43.8722 17.9561 44.3085 17.8386 44.7225 17.8386C45.6342 17.8386 46.009 18.3029 46.009 19.0693V21.0942C46.009 21.2117 45.9475 21.318 45.8133 21.318C45.679 21.318 45.6175 21.2117 45.6175 21.0942V20.574C45.4497 20.9656 45.0413 21.3851 44.2917 21.3851C43.6261 21.3851 43.1674 21.0439 43.1674 20.3726C43.1674 19.4776 43.9785 19.2259 44.7113 19.2259C45.1028 19.2259 45.3713 19.2595 45.6231 19.293V19.0972C45.6231 18.549 45.3434 18.2022 44.6889 18.2022C44.3477 18.2022 44.096 18.2861 43.8107 18.398C43.6932 18.4428 43.5478 18.4707 43.4974 18.3533ZM45.6175 19.7741V19.6398C45.3322 19.6007 45.1308 19.5727 44.7616 19.5727C44.0736 19.5727 43.5645 19.7797 43.5645 20.3558C43.5645 20.753 43.8275 21.0215 44.3365 21.0215C45.2091 21.0215 45.6175 20.3055 45.6175 19.7741Z" fill="black"/>
<path d="M47.3851 21.2173C47.346 21.2676 47.2789 21.3124 47.1838 21.3124C47.0495 21.3124 46.988 21.2061 46.988 21.0886V18.1295C46.988 18.012 47.0495 17.9057 47.1838 17.9057C47.318 17.9057 47.3795 18.012 47.3795 18.1295V20.6803L49.4716 18.0064C49.5276 17.9449 49.5835 17.9113 49.6674 17.9113C49.8016 17.9113 49.8632 18.0176 49.8632 18.1351V21.0942C49.8632 21.2117 49.8016 21.318 49.6674 21.318C49.5331 21.318 49.4716 21.2117 49.4716 21.0942V18.5658L47.3851 21.2173ZM47.5026 16.8429C47.4634 16.7366 47.4634 16.6247 47.5585 16.5744C47.6704 16.5129 47.7655 16.5856 47.8214 16.6863C47.9445 16.91 48.1403 17.0778 48.448 17.0778C48.7556 17.0778 48.9458 16.91 49.0745 16.6863C49.1304 16.5912 49.2255 16.5185 49.3374 16.5744C49.4325 16.6247 49.4325 16.7422 49.3933 16.8429C49.2982 17.089 48.985 17.4135 48.448 17.4135C47.9165 17.4135 47.6033 17.089 47.5026 16.8429Z" fill="black"/>
<path d="M53.488 17.9114C53.6222 17.9114 53.6837 18.0177 53.6837 18.1351V21.0943C53.6837 21.2117 53.6222 21.318 53.488 21.318C53.3537 21.318 53.2922 21.2117 53.2922 21.0943V19.7406H51.2504V21.0943C51.2504 21.2117 51.1889 21.318 51.0546 21.318C50.9204 21.318 50.8589 21.2117 50.8589 21.0943V18.1351C50.8589 18.0177 50.9204 17.9114 51.0546 17.9114C51.1889 17.9114 51.2504 18.0177 51.2504 18.1351V19.377H53.2922V18.1351C53.2978 18.0121 53.3593 17.9114 53.488 17.9114Z" fill="black"/>
<path d="M54.8025 19.4384C54.8025 19.3321 54.8808 19.2594 54.9927 19.2594H56.8162C56.9281 19.2594 57.0064 19.3377 57.0064 19.4384C57.0064 19.5503 56.9281 19.6174 56.8162 19.6174H54.9927C54.8808 19.6174 54.8025 19.5503 54.8025 19.4384Z" fill="black"/>
<path d="M58.5112 21.0943C58.5112 21.2117 58.4497 21.318 58.3154 21.318C58.1812 21.318 58.1196 21.2117 58.1196 21.0943V18.1351C58.1196 18.0177 58.1812 17.9114 58.3154 17.9114H60.0047C60.1166 17.9114 60.1949 17.9897 60.1949 18.0904C60.1949 18.2023 60.1166 18.2694 60.0047 18.2694H58.5112V21.0943Z" fill="black"/>
<path d="M61.3808 21.2173C61.3416 21.2676 61.2745 21.3124 61.1794 21.3124C61.0452 21.3124 60.9836 21.2061 60.9836 21.0886V18.1295C60.9836 18.012 61.0452 17.9058 61.1794 17.9058C61.3137 17.9058 61.3752 18.012 61.3752 18.1295V20.6803L63.4673 18.0065C63.5232 17.9449 63.5791 17.9114 63.663 17.9114C63.7973 17.9114 63.8588 18.0176 63.8588 18.1351V21.0942C63.8588 21.2117 63.7973 21.318 63.663 21.318C63.5288 21.318 63.4673 21.2117 63.4673 21.0942V18.5658L61.3808 21.2173Z" fill="black"/>
<path d="M65.3859 18.2694V21.0943C65.3859 21.2117 65.3244 21.318 65.1902 21.318C65.0559 21.318 64.9944 21.2117 64.9944 21.0943V18.1351C64.9944 18.0177 65.0615 17.9114 65.1846 17.9114H67.5228C67.657 17.9114 67.7242 18.0177 67.7242 18.1351V21.0943C67.7242 21.2117 67.6626 21.318 67.5284 21.318C67.3941 21.318 67.3326 21.2117 67.3326 21.0943V18.2694H65.3859Z" fill="black"/>
<path d="M71.0189 20.8145C71.142 20.753 71.2427 20.753 71.2986 20.8481C71.3545 20.9432 71.3042 21.0494 71.2147 21.111C70.9294 21.3012 70.5378 21.3795 70.1575 21.3795C69.0723 21.3795 68.552 20.7138 68.552 19.6286C68.552 18.605 69.1282 17.833 70.1351 17.833C71.0525 17.833 71.4608 18.4875 71.4608 19.1531C71.4608 19.2594 71.4552 19.3601 71.4384 19.4496C71.4105 19.6566 71.321 19.7908 71.0693 19.7908H68.9436C68.9995 20.5852 69.4303 21.0159 70.1519 21.0159C70.4931 21.0215 70.7616 20.9376 71.0189 20.8145ZM68.9492 19.4496H71.086C71.0972 19.3601 71.0972 19.2706 71.0972 19.1867C71.086 18.6161 70.7784 18.2022 70.1127 18.2022C69.4359 18.2022 69.0051 18.6441 68.9492 19.4496Z" fill="black"/>
<path d="M75.3933 19.5056C75.3933 20.5125 74.9066 21.3851 73.7599 21.3851C73.3907 21.3851 73.0551 21.318 72.7921 21.1669V22.4815C72.7921 22.5989 72.7306 22.7052 72.5964 22.7052C72.4621 22.7052 72.4006 22.5989 72.4006 22.4815V18.1295C72.4006 18.012 72.4621 17.9057 72.5964 17.9057C72.7306 17.9057 72.7921 18.012 72.7921 18.1295V18.6945C73.0159 18.1295 73.4522 17.8386 74.0563 17.8386C74.9569 17.8386 75.3933 18.5323 75.3933 19.5056ZM72.7921 20.0985V20.781C73.0886 20.9544 73.3963 21.0271 73.7655 21.0271C74.6884 21.0271 74.9905 20.3167 74.9905 19.5112C74.9905 18.756 74.6996 18.2022 74.0004 18.2022C72.9879 18.2022 72.7921 19.2371 72.7921 20.0985Z" fill="black"/>
<path d="M76.4169 17.9114C76.5288 17.9114 76.5903 17.9673 76.663 18.0736L77.8489 19.7517L79.0684 18.0904C79.1467 17.9841 79.2138 17.917 79.3313 17.917C79.4655 17.917 79.5103 18.0288 79.5103 18.1407V21.0998C79.5103 21.2173 79.4487 21.3236 79.3145 21.3236C79.1802 21.3236 79.1187 21.2173 79.1187 21.0998V18.5826L78.0111 20.1041C77.8993 20.2664 77.7259 20.244 77.6308 20.1041L76.5903 18.6386V21.0998C76.5903 21.2173 76.54 21.3236 76.4113 21.3236C76.2771 21.3236 76.2323 21.2173 76.2323 21.0998V18.1407C76.2267 18.0065 76.2827 17.9114 76.4169 17.9114Z" fill="black"/>
<path d="M80.7465 18.3533C80.6906 18.219 80.7577 18.1463 80.864 18.0903C81.1213 17.9561 81.5576 17.8386 81.9716 17.8386C82.8834 17.8386 83.2581 18.3029 83.2581 19.0693V21.0942C83.2581 21.2117 83.1966 21.318 83.0624 21.318C82.9281 21.318 82.8666 21.2117 82.8666 21.0942V20.574C82.6988 20.9656 82.2904 21.3851 81.5409 21.3851C80.8752 21.3851 80.4165 21.0439 80.4165 20.3726C80.4165 19.4776 81.2276 19.2259 81.9604 19.2259C82.352 19.2259 82.6205 19.2595 82.8722 19.293V19.0972C82.8722 18.549 82.5925 18.2022 81.938 18.2022C81.5968 18.2022 81.3451 18.2861 81.0598 18.398C80.9423 18.4428 80.7969 18.4707 80.7465 18.3533ZM82.8666 19.7741V19.6398C82.5813 19.6007 82.3799 19.5727 82.0107 19.5727C81.3227 19.5727 80.8137 19.7797 80.8137 20.3558C80.8137 20.753 81.0766 21.0215 81.5856 21.0215C82.4582 21.0215 82.8666 20.3055 82.8666 19.7741Z" fill="black"/>
<path d="M87.2354 19.5056C87.2354 20.5125 86.7487 21.3851 85.602 21.3851C85.2328 21.3851 84.8972 21.318 84.6343 21.1669V22.4815C84.6343 22.5989 84.5727 22.7052 84.4385 22.7052C84.3042 22.7052 84.2427 22.5989 84.2427 22.4815V18.1295C84.2427 18.012 84.3042 17.9057 84.4385 17.9057C84.5727 17.9057 84.6343 18.012 84.6343 18.1295V18.6945C84.858 18.1295 85.2943 17.8386 85.8984 17.8386C86.799 17.8386 87.2354 18.5323 87.2354 19.5056ZM84.6343 20.0985V20.781C84.9307 20.9544 85.2384 21.0271 85.6076 21.0271C86.5305 21.0271 86.8326 20.3167 86.8326 19.5112C86.8326 18.756 86.5417 18.2022 85.8425 18.2022C84.83 18.2022 84.6343 19.2371 84.6343 20.0985Z" fill="black"/>
<path d="M88.3989 17.9114C88.5331 17.9114 88.5946 18.0177 88.5946 18.1351V19.4832L90.105 18.0009C90.2001 17.9058 90.3119 17.8778 90.4014 17.9673C90.4685 18.0344 90.463 18.1575 90.3679 18.2526L88.9638 19.5727L90.5301 20.9544C90.6196 21.0383 90.6476 21.1614 90.5692 21.2509C90.4853 21.3572 90.3455 21.3068 90.2504 21.2229L88.5946 19.735V21.0887C88.5946 21.2061 88.5331 21.3124 88.3989 21.3124C88.2646 21.3124 88.2031 21.2061 88.2031 21.0887V18.1295C88.2031 18.0121 88.2646 17.9114 88.3989 17.9114Z" fill="black"/>
<path d="M93.7354 20.8145C93.8584 20.753 93.9591 20.753 94.015 20.8481C94.071 20.9432 94.0206 21.0494 93.9311 21.111C93.6458 21.3012 93.2543 21.3795 92.8739 21.3795C91.7887 21.3795 91.2685 20.7138 91.2685 19.6286C91.2685 18.605 91.8447 17.833 92.8515 17.833C93.7689 17.833 94.1773 18.4875 94.1773 19.1531C94.1773 19.2594 94.1717 19.3601 94.1549 19.4496C94.1269 19.6566 94.0374 19.7908 93.7857 19.7908H91.6601C91.716 20.5852 92.1467 21.0159 92.8683 21.0159C93.2095 21.0215 93.478 20.9376 93.7354 20.8145ZM91.6656 19.4496H93.8025C93.8137 19.3601 93.8137 19.2706 93.8137 19.1867C93.8025 18.6161 93.4948 18.2022 92.8292 18.2022C92.1523 18.2022 91.7216 18.6441 91.6656 19.4496Z" fill="black"/>
<path d="M96.4595 21.0943C96.4595 21.2117 96.398 21.318 96.2637 21.318C96.1295 21.318 96.0679 21.2117 96.0679 21.0943V18.2694H94.9548C94.8429 18.2694 94.7646 18.2023 94.7646 18.0904C94.7646 17.9841 94.8429 17.9114 94.9548 17.9114H97.5671C97.6789 17.9114 97.7573 17.9897 97.7573 18.0904C97.7573 18.2023 97.6789 18.2694 97.5671 18.2694H96.4539V21.0943H96.4595Z" fill="black"/>
<path fill-rule="evenodd" clip-rule="evenodd" d="M23.7625 2.81368C23.7625 1.25861 22.5039 0 20.9488 0H2.81368C1.25861 0 0 1.25861 0 2.81368V14.1188C0 20.6803 5.31971 26 11.8812 26C18.4428 26 23.7625 20.6803 23.7625 14.1188C23.7625 9.62134 23.7681 7.3167 23.7625 2.81368Z" fill="#FEC800"/>
<path fill-rule="evenodd" clip-rule="evenodd" d="M11.0981 17.2625C11.0981 16.6472 10.5946 16.1549 9.96812 16.1549C9.3528 16.1549 8.86055 16.6472 8.86055 17.2625C8.86055 17.8778 9.3528 18.3812 9.96812 18.3812C10.5946 18.3812 11.0981 17.8778 11.0981 17.2625ZM15.0697 17.2625C15.0697 16.6472 14.5662 16.1549 13.9509 16.1549C13.3356 16.1549 12.8322 16.6472 12.8322 17.2625C12.8322 17.8778 13.3356 18.3812 13.9509 18.3812C14.5662 18.3812 15.0697 17.8778 15.0697 17.2625Z" fill="black"/>
</svg>
