<svg width="73" height="73" viewBox="0 0 73 73" fill="none" xmlns="http://www.w3.org/2000/svg">
<path d="M36.5 73C56.6584 73 73 56.6584 73 36.5C73 16.3416 56.6584 0 36.5 0C16.3416 0 0 16.3416 0 36.5C0 56.6584 16.3416 73 36.5 73Z" fill="#4D76A1"/>
<path fill-rule="evenodd" clip-rule="evenodd" d="M35.1213 52.5085H37.9861C37.9861 52.5085 38.8515 52.4135 39.2933 51.9372C39.6999 51.5 39.6869 50.6788 39.6869 50.6788C39.6869 50.6788 39.631 46.8348 41.415 46.2688C43.1737 45.7112 45.4321 49.984 47.8259 51.6268C49.636 52.8702 51.0114 52.5976 51.0114 52.5976L57.4119 52.5085C57.4119 52.5085 60.7601 52.3022 59.1725 49.6697C59.0424 49.4543 58.2479 47.7223 54.4137 44.1633C50.4005 40.4383 50.9379 41.0408 55.7722 34.5974C58.7164 30.6734 59.8934 28.2777 59.5258 27.2516C59.1751 26.2744 57.0098 26.5327 57.0098 26.5327L49.8032 26.5776C49.8032 26.5776 49.269 26.5047 48.8728 26.7415C48.4856 26.9738 48.2364 27.5152 48.2364 27.5152C48.2364 27.5152 47.0958 30.5517 45.5746 33.1341C42.3656 38.5833 41.0826 38.8709 40.5581 38.5326C39.3382 37.744 39.6427 35.3646 39.6427 33.6742C39.6427 28.3935 40.4436 26.1917 38.0831 25.6218C37.2997 25.4324 36.7232 25.3075 34.7199 25.2873C32.1485 25.2607 29.9721 25.2951 28.7398 25.8989C27.92 26.3004 27.2875 27.195 27.6727 27.2464C28.149 27.3102 29.2278 27.5373 29.7997 28.3161C30.5382 29.3207 30.5122 31.5771 30.5122 31.5771C30.5122 31.5771 30.9364 37.7934 29.5212 38.5657C28.5498 39.0954 27.2173 38.014 24.3564 33.0704C22.8905 30.5381 21.7837 27.739 21.7837 27.739C21.7837 27.739 21.5703 27.2159 21.1897 26.9361C20.7277 26.5971 20.0823 26.4891 20.0823 26.4891L13.2342 26.534C13.2342 26.534 12.2062 26.5626 11.8288 27.0096C11.4931 27.4072 11.8021 28.2296 11.8021 28.2296C11.8021 28.2296 17.1635 40.7727 23.234 47.0938C28.8003 52.8891 35.1213 52.5085 35.1213 52.5085Z" fill="white"/>
</svg>
