<svg width="48" height="48" viewBox="0 0 48 48" fill="none" xmlns="http://www.w3.org/2000/svg">
<path d="M24 48C37.2548 48 48 37.2548 48 24C48 10.7452 37.2548 0 24 0C10.7452 0 0 10.7452 0 24C0 37.2548 10.7452 48 24 48Z" fill="#B9AFD1"/>
<path d="M32.4816 19.5055H29.1911C29.0568 19.5055 28.925 19.5419 28.8098 19.6108C28.6945 19.6798 28.6001 19.7787 28.5366 19.897C28.5366 19.897 27.2243 22.3139 26.8027 23.128C25.6686 25.318 24.9343 24.6305 24.9343 23.6141V20.1096C24.9343 19.8168 24.8179 19.5359 24.6109 19.3289C24.4038 19.1218 24.1229 19.0055 23.8301 19.0055H21.3561C21.0192 18.9804 20.6814 19.0419 20.375 19.1841C20.0685 19.3263 19.8035 19.5445 19.6051 19.818C19.6051 19.818 20.8614 19.6148 20.8614 21.3075C20.8614 21.7273 20.883 22.9348 20.9027 23.9475C20.9064 24.0968 20.8642 24.2436 20.7819 24.3681C20.6995 24.4926 20.5809 24.5889 20.4421 24.6438C20.3033 24.6988 20.151 24.7099 20.0057 24.6756C19.8604 24.6412 19.7292 24.5631 19.6297 24.4518C18.617 23.0434 17.7782 21.5179 17.1315 19.9083C17.0759 19.7878 16.987 19.6859 16.8753 19.6145C16.7635 19.5431 16.6337 19.5053 16.5011 19.5055C15.7875 19.5055 14.3595 19.5055 13.5115 19.5055C13.4292 19.5049 13.3481 19.5243 13.275 19.562C13.2019 19.5997 13.1391 19.6546 13.0919 19.722C13.0447 19.7893 13.0146 19.8672 13.0041 19.9487C12.9937 20.0303 13.0031 20.1132 13.0318 20.1903C13.9396 22.6803 17.85 30.5055 22.3134 30.5055H24.1921C24.3889 30.5055 24.5777 30.4273 24.7169 30.2881C24.8561 30.1489 24.9343 29.9601 24.9343 29.7633V28.6289C24.9343 28.4866 24.9759 28.3474 25.054 28.2284C25.1322 28.1095 25.2434 28.016 25.374 27.9595C25.5046 27.903 25.6489 27.886 25.7891 27.9105C25.9293 27.935 26.0592 27.9999 26.1629 28.0974L28.4116 30.2101C28.6135 30.3998 28.8802 30.5054 29.1573 30.5055H32.1101C33.5342 30.5055 33.5342 29.5172 32.7578 28.7525C32.2113 28.2143 30.2394 26.1359 30.2394 26.1359C30.0706 25.9609 29.9699 25.7314 29.9555 25.4887C29.9411 25.246 30.014 25.0061 30.1611 24.8125C30.7984 23.9737 31.8409 22.6007 32.2831 22.0125C32.8874 21.2086 33.9811 19.5055 32.4816 19.5055Z" fill="#2D1B58"/>
</svg>
